<mxfile host="Electron" modified="2024-05-24T18:35:22.633Z" agent="Mozilla/5.0 (Windows NT 10.0; Win64; x64) AppleWebKit/537.36 (KHTML, like Gecko) draw.io/24.2.5 Chrome/120.0.6099.109 Electron/28.1.0 Safari/537.36" etag="Czn95QX5tcQUjbbWVjsI" version="24.2.5" type="device">
  <diagram name="Página-1" id="C4HSA72bePuHiOYw2fB1">
    <mxGraphModel dx="724" dy="428" grid="0" gridSize="10" guides="0" tooltips="1" connect="1" arrows="1" fold="1" page="1" pageScale="1" pageWidth="827" pageHeight="1169" math="0" shadow="0">
      <root>
        <mxCell id="0" />
        <mxCell id="1" parent="0" />
        <mxCell id="fUqpHQP2NRJlJACCKLOP-8" value="" style="ellipse;whiteSpace=wrap;html=1;aspect=fixed;" vertex="1" parent="1">
          <mxGeometry x="466" y="55" width="173" height="173" as="geometry" />
        </mxCell>
        <mxCell id="fUqpHQP2NRJlJACCKLOP-2" value="ERP" style="rounded=1;whiteSpace=wrap;html=1;arcSize=11;fillColor=#ffe6cc;strokeColor=#d79b00;" vertex="1" parent="1">
          <mxGeometry x="284" y="100" width="120" height="60" as="geometry" />
        </mxCell>
        <mxCell id="fUqpHQP2NRJlJACCKLOP-3" value="" style="image;points=[];aspect=fixed;html=1;align=center;shadow=0;dashed=0;image=img/lib/allied_telesis/computer_and_terminals/Personal_Computer.svg;" vertex="1" parent="1">
          <mxGeometry x="298" y="239" width="69.36" height="94" as="geometry" />
        </mxCell>
        <mxCell id="fUqpHQP2NRJlJACCKLOP-4" value="" style="shape=flexArrow;endArrow=classic;html=1;rounded=0;endWidth=11.724137931034484;endSize=4.56551724137931;fillColor=#fff2cc;strokeColor=#d6b656;" edge="1" parent="1">
          <mxGeometry width="50" height="50" relative="1" as="geometry">
            <mxPoint x="345" y="212" as="sourcePoint" />
            <mxPoint x="345" y="174" as="targetPoint" />
          </mxGeometry>
        </mxCell>
        <mxCell id="fUqpHQP2NRJlJACCKLOP-5" value="&lt;i&gt;Visualización de datos ERP&lt;/i&gt;" style="text;html=1;align=center;verticalAlign=middle;whiteSpace=wrap;rounded=0;" vertex="1" parent="1">
          <mxGeometry x="270" y="210" width="153" height="30" as="geometry" />
        </mxCell>
        <mxCell id="fUqpHQP2NRJlJACCKLOP-6" value="" style="shape=image;verticalLabelPosition=bottom;labelBackgroundColor=default;verticalAlign=top;aspect=fixed;imageAspect=0;image=data:image/png,iVBORw0KGgoAAAANSUhEUgAAAQEAAADECAMAAACoYGR8AAAA+VBMVEX///82NjZvtD9fYGIoKCimpqZXpwAcHBwyMjKWlpbk5ORVVVVmZmZUpgDV6Mdws0C01J1irB4jIyM/Pz8nJychISHa69AuLi5wtDu7u7t+ukxvs0Pz8/NyszxdqhKIiIixsbFGRkZ9fX2kzYZstURrtzvj4+Pt9eYAAAAVFRX0+e/U1NTA3Kzn8t5quTBptz1QUFBzsEdwcHCOwWebyHnW1tbs8enG2bq80q6tyJiwzJuGuWaVu3bg6dmFsmhnuCyZvINotyG3zauWwXF9rkVsqidusk6+1Klwp0qWv4F1qzxxtzCszpJopTDD1bbU4c1rqBWOtHHL4rlAsZa8AAAK70lEQVR4nO2ce1vaSBuHacTIoRhCEQYmiQoZaRESEA9VpGpblAXd7vr9P8z7TGZy4KDuH4XUvM997dXC5LAzvzynmQxNpRAEQRAEQRAEQRAEQRAEQRAEQRAEQRAEQRAEQRAEQRAEQWLi/OLrJXD18CvunsSBcTHsK7Mbx3EYQPrXF3H3aLNcUF0nShTC9MEo7m5tjIdvmusqS9D+9W7cXdsIo6HOHLZCAYXdjG/bcXdv/TzorqYQYppLApiabbt64l3hVndcSqmmrVCA9qni9C/j7uJaaQ/vHDolRKG2rWnR4cMXlxFT698o3+Pu5TrRCR82BS8g4pMG3qApjNC+JnODqTjDuLu5Pr6JUTIF/ECZQR3guIrrQlSkNhiAbwyumVgruL2TuV+xbaiCtP7wugmc/vg5dhz3nkoFGHt6iLur6+FBd2Tih0HO9J9XQdhv7171ZzMiMwI4BUlkRhg9zWyhQJ8wZbIwF2g/joUChFLC3Gk8fVwvE6bxQkDRKJ2xv5aPnw9BGAoREgKlcnO1+Q6um4sZ7RNKZtwH9NV+fj1zbVkm2OPuhvu3fr7BAza5oTOm//3COd8poTJYksQVRhcaBH9wckgCLGLhR8fHx7nw67UfKgibGJvv5FoZuq5UwLz223LZfC+fz/e2tv3Rtqd+XcSUhGVEY6zYpunyQDA5l23bvS1JPl+Tbb/Gsi5iTsLSwVfIAaAARHn9q2gxTvJbIb2sPJGXjaZJKFRMyaoJhsK66YzqsmVOADCDbdE88oxFocxmyUqIMsRTRh9Fw/a8AGAFx+JA31sooERh1y/f7v1xToh0byps2+htLfJRnPqoMI2CApT9jLHDv52RLpcBXCoalkwA/EAYwWjKaJ9B1mBPMXb4t/M3kyHe7YuGkyUBtvIiGBoTh1JHMftsnKRQeCUVMN2B991YNgFAnNsnpk2YSV09SS9SAgXsU+97bpUCPXFuXTNdk2mKnVAFhA0cLQfCOQVI4hVYaQN5cS7lCrhJVUBxNdGwKgw0vCPtG+4FikbsRL06eA4UMEXD/goTEHOD8ztFs01bAQWS9P5oJBUgtkxxx8uBIC8miB0N6kFCqGL/E2ePfzdtzY8DMznpXSoIZDmQGlANZlF8pSRRNWFqIqrivu2/DsktGoEsiiEQAnytiD3G1tt1cEn8VWImI/yiH8iVogtCuAREIyRJqYBPjcTcEMr9gWw62wpTYv5ECtDmi8ma5wfj2Dq7HvoyFUycO//ZGtme0CCfP/BPu7wjGgQCrsBg9Y3eLTDpNadyGdRfJksZtex+Yz97HJz1oMudFdQeJ8sJ+BqoQ/ryrdD0pWXgylO4Vvxto93bBJd37r18HXIzXC3BrzHMisUpTqJKYkH7KXgh5JJpZcUZD2PHvper5SyJewgu+IRPDO+e/HO7eHj0F5mRe1+BhC0USwY3/rtjqI7J9Ot55Nj5d3rjwmRgJgX4EVsv14kxuePljlw0JWw8fDhvtVrdyu7jPd9VE91X5L9VSBi/npjrKlSunNs21D5Puq7f3DCqKWRuY5UyTlZN7DPSGWO0r/gZj0GG5IBdEGVOAeroK7YYJIAOTAz8d6OmqVGxq0xZEgAqInY3TNL6QMBoSPw4wAWgtm27EAEVXgpLy5ASKIxMzt++4ftjNFQYTwmaBoOHUZom/GcSzxr48NkpBUehCmRG23l6jru7a+EWwiGMnCrCA/i+IgiEfFmIOQ7tpEamo/Q1zeTHWMI2EUhGP59Mwn9WwfdXc8AhNNDBZU/X3O7Pf86Y2HRJ+ol6exrh/N8pc8D/KRWhwOa1kD6+9qcL18RhXluyFsrm6F5OdTab8Z21jLlgD0+3nVZ4+EoHIyEzM5HZIGD06+u3yXRsTvuTwY+LhbA/mvDNhYmcHCxgACsPjCYO/f/4zc2LtGiydtEgCIIgSOLJHR3l3j4rqRgHW+kSUM5v5+aaa8AZ/1g7ALwdIme8rTZ/fafTmV8GaENLJVXpRCcKfzLZajnzwSNTLjfCEvfoc7lc/uLtl+7tlct73m7B7JdyuZSZv8FpQVXnZkCdglroph4LhXdRFecOyx8iVKvBW9DcDnxPewrkQaKMt0Mim4bGT/O3qBR0dc4I6pZFUqmi+i4UyKUzH+b54tt4VIFqJlN9UYEU0a3om/I2KFLkCqjvQAHjkxCgWtrZKVWFBHvSCiIKbB0CJ/zTSgWaqh7dNtZRdfWdRIBUqpH2Bl06qR0d1RoiHmTkACMKhKxUoAsPPfK4B5ZVX2uvfyNnO3NP/UhYREmM+r8rkJpF3aANJtBZX59/Lyee4ZeC4GfInOB9iSiw3wC8zXIRBYx9D978CIMObsqd4L0sjhmeCVQbYctBKbSJiAK9dLVaFtkwVCBfrlarez2ePrtqxA0gEyzvIOruPnf/QFlqYrxHkaZPnib7/OMb2fAj/1TtifoB3KAp79C2ZG7s1DW5zaLd1AtQIuhNT4Nmve7nzla97l+Wqtfrq3ZlrJd97gSZXrSpETa9rsAJLyOqh7KAAjfwf4LW8T0iqAd2VWBmwR8W/y3ycyEIlJ2C5V/WLVjmmob5Cnxgc04AbuDVR1U+sFcVEAIEIRHcoCCfIDiB+BGGXw/sivIg1f0BJ/EsGSbLOtiLvKxpxRA+RdyrZqNtx8Ix+PzgNQUaQoCwhNYs6QbtIDNKBdrhKB9V7+mf+oOFrBF4D9jI5uOEUCA9r8Aeb9vhoeFlBQ6z/KzMYWSZvKhKI+4E/iAVaKpBiEiZFreUXVW6AT9Xt7yP0BbDBsyVNvBfFPhQXbqQu4H3Dw4MfGPwFdDlAdHkHdSFN4AT1IuqOAp2EUcJLeLASbSp5sWB8utxQFI6i1xYt1S+bYaXQ3LAQgGQxgpO6oqnDz7PA0NLVYtdVVymR87aICIXHL7Q9KYCma3IhdINntUgpAsFdsHS6wGWDpNGmEx6QnT48zf5NJJf1kzFgKwHoo/yMDSLVxUQxWRkqaRV8B7+QJgCRyjwDDZQCICEyOMdsXg2qFszHh0L4rJY/tGO5ZqwtheO7BUFMp+ywlsiNzO5afPA7w/FV8CqdysR+KFHlZ/rOUC3AH+2Vc8SYuBk4VEacrHA+/KyAjwLeDEkvR/eq8Pt/1kNp4VCgYq6otKB8keDCzyxiPhYXNMQ3+BYzA19Cc7E3FCM9TUbMPxp5U7oQS3IBu1BpK4RCnCrCP+H/twADKZVF8+9qaqtgRXbgkJDrIrsbR2cndVO9qQJpD++mgtEoBT1cz68F2SDzhhU8L/LbAjNwRIamHxdHrOaMmJAWGyumkttCOODGHSmvLfnrxF51V7uTQUMETIOgntBfWNF1wmkAs8FPfDxU6sgTATipuXXCXDRwjrjRsllFtcJhSJfzt5SQM6k00Fh2OIVXmQo/rwgnC1HUiXkRf9z04qpGJAsrhV/8qyimn/TBlKp3sLEqs6HEhb3vgJt3bL0YqW7O1Ct4DCfQcoKoAK2c7r2cb5GthS8L0jvNIwjyPUZPuc5+pxOp+X7glI6Ld8X7KTTJZErUsdfyul0+XOwwsRfE0T8OXhf0K5DHcCLgYIZxDuoB/3JZMoKP8aEcfCxvMPJZ/mc0OiVq97f2xxvfAf8k5cwjvmnA3lhbTv6LdUudoqRuqZSLPoDrpyaljX7Ea38O8Ug/z0XY0qFcxjR94Yfj185E0EQBEEQBEEQBEEQBEEQBEEQBEEQBEEQBEEQBEEQBEEQBEEQBEEQBEEQBEEQ5I/kf6bKMgm9E5JRAAAAAElFTkSuQmCC;clipPath=inset(17.35% 20.82% 25.51% 19.26%);" vertex="1" parent="1">
          <mxGeometry x="322" y="270" width="29.88" height="21.73" as="geometry" />
        </mxCell>
        <mxCell id="fUqpHQP2NRJlJACCKLOP-7" value="" style="shape=image;verticalLabelPosition=bottom;labelBackgroundColor=default;verticalAlign=top;aspect=fixed;imageAspect=0;image=data:image/jpeg,/9j/4AAQSkZJRgABAQAAAQABAAD/2wCEAAkGBxISEhUSEBIVFhUVGBUaFhcXFxcYHxkVFRUXFhgdGRcZHCggGBslGxgZITEhJSktLi4xFyIzODMtNygtLisBCgoKDg0OGxAQGy8mICItKy0tLy4vLS0tLy0tLS0tLS01Ly0tLSstLy0tLy0tLy0tLS0tLS0tLS0tLS0tLS0tLf/AABEIAMsA+AMBEQACEQEDEQH/xAAcAAEAAwEBAQEBAAAAAAAAAAAABQYHBAMCAQj/xABLEAABAwICBQYICgcIAwEAAAABAAIDBBEFIQYSMUFRByJhcYGREzJSU3KhsdEUFRYXIzNCkrLBNFRic4KT0iQ1orPCw+HwQ4Px0//EABoBAQACAwEAAAAAAAAAAAAAAAADBQECBAb/xAA3EQACAQICBQkIAgMBAQAAAAAAAQIDEQQhBRIxQVETFBUyYXGBkaEiM0JSscHR8DThI2LxckP/2gAMAwEAAhEDEQA/ANxQBAEAQBAEAQBAEAQBAEAQHhXVjIWGSQ2aP+gAbytZzUFdklKlKrJRgsyhYtpZNKSIiYmbreMet27s9aq6uLnLq5I9Dh9GUqavP2n6eX5Immmc6QFznE55kk7jxXPrNvNnc4RjGyViapsQljPMkcOi9x3HJSRqzjsZy1MPSqdaKLPg2OCXmPAa/dwd1cD0KwoYlTye0psXgXS9qOcfoTK6ivCAIAgCAIAgCAIAgCAIAgCAIAgCAIAgCAIAgCAIAgMn0y0mq46yaOOdzGMLQ1rQ3IajSd2ZuSqrEV6kajSdkj0eCwdCdCMpRu3+TxrsJxmYAStleG5gGSIZnqcFiVLES6yv5G1Ovgab9hpeD/BXa2OeF5jmEjHDc4kZcRxHSFzyUou0kd9OUKkdaDuiQ0bqHOkIcb2/MFLZXNJPNruLMhqfrSQbjIjYelZDSasy+YPW+Gia87djvSHv29quKNTXgmeYxVHkarju3dx2qU5wgCAIAgCAIAgCAIAgCAIAgCAIAgCAIAgCAIAgCAw/T39PqfSb/lMVLiveS/dx63R/8eH7vZedL8Erp5mPpJCxgjANpXR87Wcb2btyIzXdiKVWck4P1sU+CxOHpU2qqu78E8iv8pVWxxp4tcSTRMcJXDiQzI9JLXG26/SufGSTcY7Wtp26KhJKc7Wi3l6lc0dqGslcXG2Q3HgeC5vhR3te2+5Fk+NIfL9TvcsDVY+NIfL9Tvcg1WW7QasbI2UMNw0tOwjNwPH0VYYJ5NFLpaNpRfeWhdxUBAEAQBAEAQBAEAQBAEAQBAc2JVzIIpJpL6sbXOdYXNmi+Q4raEHOSit5rKSjFye4onzt036vN/g/qVh0ZU4o4ukKfBj526b9Xm/wf1J0ZPijHSFPgx87dN+rzf4P6k6MnxQ6Qp8GfreVqlvnBOBvPMNh1aydG1OKM9IU+DNBjeHAOGwgEdRzCrWrHesz6QBAEAQGH6eD+31PpN/y2KlxXvZfu49bo/8AjQ/d7OzTzGYqmaN1PIXNEYacnN52s47HAXyIW+JqxnJOL3EOjsPOjBqos79jKuAuYsT7ovHd1N/Nb/CiH/6PuR3LUkCA03k1oyymdIR9a8kei0ao9esrPBRtC/E87pWopVlFbl6v9Rbl2FWEAQBAEBXtJNMaWiOrI4vk82yxIvs1rmze036CuqhhKlbNbOLOaviqdLJ7eBUH8rRvlRi3TNn/AJeS7lor/f0/s4ulP9fX+ix6O6f0tU4RuvDIcg19rOJ3NeMieg2J3Lkr4CpSV9q7Dqo42nUdtj7S2riOwIAgCA8KyrjiYZJXhjG7XONgLmw9a2hCU3qxV2aznGC1pOyIn5YUH6yz1+5dHMcR8jOfntD5kRelOk9FLSTxsnY5zo3ANF8yRs2KfDYOtGrFyi7XIcRi6LpSUZK9jHPBN8n1L0OrHged15cSWwyiifGCWNOZzUUrXyMOc1vJGiwmAvaDE0g9fArSWSNeUlxJc4BS+YZ6/eoNZ8THKz4mo0osxoG5rfYvPT6zPZ0+ou49VqbhAEAQFdxbQukqJXTSNeHutraryASABe3UB3Lnnhac5azO6jpCtSgoRasuwq+l3J0RDr4c4+EabuZJztdvBpys4buOzgo5YOCV0n5nRT0pWcrSaXgZi6krASCWAjIgtIsRtBF8iuP/AA8GWl8VxXl/ZI4bTPaCZHAvdtsLAAbAFHNrZHYTUozWc3mzsWhMTGjWASVclhcRtP0j+A4Di4+raemajRdR9m85MXi44eN3t3L93Gv08LWNaxgs1oAaBuAFgrhJJWR5aUnJuT2s9Fk1CAIDjxXE4qaMyzO1WjvJOwAbypKVKdWWrBZkdWrClHWm8jPMS5TpDcU8LWjMBzzrHoOqMgejNXNPRMV15eRTVNLy+CPmZ3UNc5xe5xc5xJcXG5JOZJO8q05NJWRWcq27yPAhakh+LANn5MNInVMDopXF0kFhrHa6N19Uk7yLEE9A3lUOkMOqc9aOx/UvsBXdSFpbUXRV53BAEBVOU39Af6cf4wrDRn8hdzODSX8d+BmejWj8lZIWsIa1oBe856oOzLeTY5dBV3isVHDxu829iKLC4WWIlZZJbWTsWi+Hyu8DDXEzbrtBaT0ZAO7HFcbxuJgtedP2f392HasFhpvUhU9r9/dpVsVw6SnldDKLObw2EHMEHeCrGjVjVgpx2Mra1GVKbhI5cHxBzWEAA85/HyitKUdZN9rM117S7kS2H4q7wjea3b08Ctp01YgsTpxZ3kt9ag5JGrWRqtKeYz0W+wLzM+sz21PqLuPVam4QBAEAQBAQ+M6NU1TzpGWf5bOa7t3O7QVDUoQqZtZnXQxtWjlF5cHsK5LycNvzakgdMYJ7w4exczwK3SO9aYe+Hr/R2UHJ/TsN5Xvl6PEb3DP1reOCgtruRVNLVZK0Ul6v98C108DY2hkbQ1o2NaAAOwLrSSVkVkpSk7yd2eiyahAEAQGQ8p+JukqzDfmQhoA3az2hzj3ED+Fej0XSUaOvvkec0pWcqupuRT1ZFYEB0R4a5+0WHE+5RylEypWPcYSGZ+N1+5aJoy6jZ6xPLSCwlpGwtJBHaFlpNWZhSad0zQ9BNJ3yu+D1DtZ1iY3nabbWu4m2d+g3VLj8HGC5SGzei90djpVHyVTbuf2LuqouAgKpym/oD/Tj/GFYaM/kLuZwaS/jvwK1oS0uw6sbF9YdfIbbGIatuuzrLsx1liqblsy+v/DjwF3haijtz+hS8KY500Qj8cvZq246wsrWs0qcnLZZlVQUnUio7botPKo5vwpgG0RDW7XvI/70qu0QnyLvx+yLDS7XKruM+oJhqn03/iK7KE1qvvf1OOvTesu5fQ76OpaHtJvl7lM3dWIHBpEr8bMJ1Wte5x2NABPtyCiktUwqbavuNE5MqyrfFK2skD9Qt8HsLmsdrc1zh41rD3lefxtFU2mt9z0uBxKrJxXw2LouI7wgCAIAgCAIAgCAIAgCAIAgMf5ScMe2tc8NJbM1rmkDe1oY4eoH+IL0mjaqlQ1fl/6eb0pTca2tuZAwYWT45t0DM967XU4FbckIaZjPFHbv71G5NmD1WAEB5SwA9BWUwSOhlM810Nh4pc4n9kMcD7QO1c2Oklh5X/czt0fFvExtuu/Q11ebPVBAVXlMH9gf0Oj/ABhWGjP5C8focGkv478PqZbgOOS0knhISMxZzTm1w6R7CM/Wr7EYeFeOrMoMPiJ0Ja0Sx/L1jSZIqCBkxveS4Judt7MBP3lw9GNrVlUbjw/X9ju6TinrRppS4/qKjXVj5pHSyuLnvNyfV2ADK3QrKnTjTioxWSKypUlUk5SebIynw+QML2jXaXOPN2i5vs3jqXJSdk+9/U7Kk4yaTydl9DpoaFzzd51G8B4x/pUms9xHJxiuP0LRh8McYtG0DjxPWdpWpyzbltL3oB/5v/X/AK1VaS+Hx+xc6G+Pw+5blVl4EAQBAEAQBAEAQBAEAQBAEBx4rhsdRGY5RltBG1p4g8VLRrSpS1okGIw8K8NSf/ClVehE4P0b2PbuuS09osR61bQ0lTa9pNepSVNEVk/Yaa8vyeHyMq+Ef3/+Fv0jR7fIj6KxHZ5/0PkZV8I/v/8ACdI0e3yHRWI7PP8AofIyr4R/f/4TpGj2+Q6KxHZ5/wBH0zQuqJz8GOkuP5NWHpGj2+RlaKxDe7z/AKLdo9gDKVpz1pHeM61suDRuHt7rVmJxUqz4Jbi4weCjh1xb2smFynaEB+PaCCCAQdoOd0TtsDVzm+LofMx/cb7lvys+L8zTk4cEZlyo4BFJUxkcy0QFmc0eO/Ow3qzwVN1INuT28WU+ka3JVElFbOBTfkrH5x/3ne9dnNv9n5s4Oev5V5InKeBrGhjBYAWC6IxUVZHJKTk7s/Jadrs9h4j/ALms2Ck0fDdZu3McVrY2umX3k4kuJ/8A1/61VaS+Hx+xc6HVtfw+5dFVl0EAQBAEBw4ti0NMwyTvDQAekm3AbSpKdKVR2ijDdjMsY5RqiZxFN9DHuNg55HSTcN6h3q1oYGms55v0OSpXluyI6n0lrQdYVMt+l2sO51x6l1vC0WraqOd1preXLR/Ty9mVgtwkaMv4m7usdwVfX0fbOn5E1PGLZPzLvDK17Q5jg5pzBBuCOghVjTTsztTTV0fawZCAIAgCAIAgCAIAgCAIAgCAICOxXBIKgtMrSS3IEEjI7stqno4mpSTUHtOavhKVdpzWzwOD5HUnkO++73qbpCvx9Dn6Kw3B+bHyOpPId993vTpCvx9B0VhuD82PkdSeQ777venSFfj6DorDcH5sfI6k8h333e9OkK/H0HRWG4PzZI4ThENMC2FurrG7jckkjZmVz1a86rvJnVQw9OgrQW071EThAEB8yPDQS4gAbSTYAdJWUm3ZAqeM6YgXZTDWPnDsHojf1nLrVhRwLedTyMpGYaZV73lge4uLiS4k7m7B1XJy6F32UUox2ENfJWIylU8DhkScLVuQSZ1RtWCFsl8GxaamN4nZHaw5tPWNx6RmoK1CFVe0vEzTrzpP2WaBgmksU9mn6OTyScif2Xb+raqevhJ081mi0oYyFTJ5MnFynWEAQBAEAQBAEAQBAEAQBAEAQBAEAQBAEAQBAeFbVNijdJIbNaLn3DpJy7VtCDnJRW1mG7GYYzjktS67zZl+awHIcL+Uen2K9o4eNJZbeJopXOBpUxKmVvSv6yP0T7VFLaQV9x40YU0ThmS0LVIc0mdcbVqQtnTG1akbZ7tYsEbZatGcfe1wimcXNOTXHa07gTvHs6lX4rCprXhtLHB41qShN5PYy6KqLoIAgCAIAgCAIAgCAIAgCAIAgCAIAgCAIAgKnyjTkQRsGx0mfSGtJt32PYrDR0b1G+CIqrsjPw5XFiNSPsOWLEikV3Sg/SR+ifaoZ7UaVWWLRjQiqqGh5aImHY6S4JHFrNpHSbKKpjKdPLa+wgVCU+wtXzdvA5tQ0ngYyB36x9ihWklvj6/0YlgW9kvQg8RwaanNpWWB2OGbT1H8jYrspV4VV7LK+tRnT6yPKNq3ZytnQxqwRtnqGLBpc0vD5S+KNx2uY0nrLQSvP1Y6s2u1nrKM3OnGT3pHQtCUIAgCAICKx3HGUuprtc4vvYNtsba9yesLpw+GlWvZ2sc2JxUaFrq9yJ+XEXmn97feunoyfzI5elIfK/QfLiLzT+9vvToyfzIdKQ+V+g+XEXmn97fenRk/mQ6Uh8r9D6ZpvESAYpAN55pt60ejZ22oLSdO/VfoWlVpZhAEAQBAEAQBAEAQFM5TD9HD6bvwqz0Z1pdxz4h2SKCHK3OdSPoOWLEikW/QPBaeVzqiWMPkjIDC7MNuNa4bs1r79o3WVVpCcotRT2k1NJ5mgKrJggPiWJrgWuAcDtBFwesLKbTujDSaszINJ8Sjpa6WAs1Y26mqRc21o2uNwcyLk7O5XFCu5QTkVmI0Zda1Ly/B20r2vaHMIc07CDcLpvco6kZQerJWZ0hqwRXNBwj6iL0GfhCo6/vJd7PW4T3EO5fQ61EdAQBAEBTn8peHgkB0h6RGbHpF9ysFo2vwXmcnPaX6itaX6Z0tQYvBeEOrr3u23jattp6Cu7BYWpRUtbfb7nBjakazjqbr/Yr3x5Fwd3D3ru1WcPJM7WVTCAQ4WPSFqs1dGji1kfXh2eUO8LNjFmBOzym94SwszaF5Q9YEAQBAEAQBAEAQBAUnlPP0UPpu/CrTRfWl3HJi3ZIz4OVxY5FI+w5YsbqRfuTOYFszN4cx3YQR+SqNJxzi+868PK9y7KrOgIAgMM5RLPr53DYCxva2NjT6wR2K0oK1NEsVkVyjrJad2tE63FpzaesfntUqbWwgxGGp11aa/JdsAx9lTzSNSQC5bfaOLTv6toUsZXPM43ATw3tbY8fyarhP1EXoM/CFTV/eS72egwnuIf8AlfQ61EdAQBAfL9h6isoGG6MYXDPQVpLLzwNbIx9zcMsSRa9j4jt32l6TEVZ068M8nl++ZTUYRlSllmsyRpdEo3YS6pI/tBDpWc4/UscAeZexBaC69r84KGWLksUqfw7PF/2SLDp0Nfft8CNxrDIocOo36g8PO6R5fc5xDWsLXtsdHu3KWlVlPETV/Zjl4/tyOcIxpRe9/T9sReH/AFbOoKal1EctTrs6FIaBAf0CvInpggK7pZj7qcNZFbwjhe5z1W7L23km9upd2Dwqq3lLYjScrFYo9LaljgXv8I3e0houOggCx/7ZWE8DRkrJWI1Nmgx1sZiE2sBGWh2s4gANte5J2KkdOSnqb9hNfK5wYbpNSVD/AAcM7XPzsLObe23V1gNbsUtTC1acdaUcjCkmS65zYIAgCAo/KmfoofTd+FWmi+vLuOHHO0V3mdhyuSvUj61ksbqRI6P44aWZsoF27Ht4sO23SLAjqUGIoKtDV8iSnX1JXNfw3EYqhgkheHNPDceBG0HoK85Upypy1ZItYTjNXidS0NiD0n0iZSsIBDpSOYzhf7TuDfb7J6NF1H2G0Y3MaqQXEucblxJJO8k3JParS1iY4Jolixg5oy6N7ZGZOaQR2flu7VjYR1KcakXCWxn9FYDKH00DxsdFGR1FoKq63vJd7ObDwcKUYvckjvURMEAQHy/YeorKBi3JVMPhToXeLPA9hHEgB34Q9eh0lH/HrL4Wn++hUYJ+3q8UTvxuyPF46UfUMiFHbcdZoPfr6rOxcvIuWFdT4m9b98Lsn5RKuobrav79CE5T9WOaClYeZTU7GDrOWf8AC1i6dH3lCVR7ZNkOLykoLcil0UzvBt5x2DeuukvYRzVEtZnv4Z3lHvUljSyHhneUe9LCyNXm5UIQ4htPIQCQDrNFwN9tyoloyds5IvuUR8fOlF+rP++33LPRkvmRjlUVzSTS1tTI2RsTm2aGkFwOwk7h0ruw1CVGGq3fM0lK7PjDnGewiaXOcbBozN9//wBUzmknJ5JGLF20xwyVuGCKO7jH4MyBud2tzdYcA6zupqqcLVjLFOb33sSyT1bGbaPQSSVMLYbl+uwi24NcCXHoAzVvXlGNOTlssyGO3I3teWOoIAgCAp/KdSF9K2Rv/ieC70XAtPrLVZaMmlVcXvRw6Qi3T1luZlnhFfWKhSPh0ywZ1jwknWjZm564TitRDKHUrnB/BuYIG5wORHWoKsYTjaayJ6PKa/8Aj2mhz6ZVT4WtLWRyW57mEn7oPi+voKrlg4KV9qPQUqctVOe3sKrUEkkkkk5kk3JPSTtXTsJjilCwYOOQLBg5/BFxDWi5JAAG8k2AHWVhmD+hcIpPAwRQ+bjYz7jQ38lTzlrSbIGda1AQBAfhCAyJnJfWsdeOeEW8VwfK11tl8mZG3TvV89KUZLOL9PyVfMqieTXqVbTXCZsMdEagiR03hHNMRc4gxlhJcXhpvd4N8963hj6c1aMX5L8mrwk1m2vX8Famx4vJLmTOcd7rG+4XJcStli4pWjB+n5Mc3d7uS9T6gqS1oFhkFNCbjFI0lBN3PT4YeAW3KM15MCsPAJyjHJljwupjjnZJLGJGNcS5htZwsRbPLaQexR1IylBqLs+JZraaJR1mHyUc1YMOiAifqlmpHc+JmDa32/UquUK8aqp8o8+19v4JFq2vYoWkdfDPKH08AgYGAFgDRdwLiXc0WzBA7FZUKc4RtOV2RyaewsmjOlk0cDWsjgGrzL6hBIbkC4h2Z4lc8sHCo25N7Xv/AKNtdokqnTiqDSQ2G4F82v3fxrC0bR4v0/BnlGQ8XKDVNJLIaVpO0iNwv12kzW70dSe1y8/6NeUZo+imLOqqWOd7Q1ztYENva7XFtxfMA2vZVGJoqlVcETRd1cl1zmwQBAfE8LXtcx4Ba4EOB2EEWIKzGTi7raYaTVmZJpVoNPAS+maZYdthm9g4Fv2h0jtCv8PpCFRWnk/RlLXwE4O8M16lNfFJe3g334ajvcutzRAqFS9tV+TJDD9HZZM5rxt4faPZ9nt7lDKpwLLD6NnLOpkvUsEFJHE3VjaAN/E9Z3qFu+0uadKFJWgrHnKVg3OOUrBqcUpWDDOdkL5HBkbS5ztjWgknsCw2krs1ZpGg+gxgeKirt4QeJGMww8XHYXcAMhtzNrV9fEay1Y7COUrl9XIaBAEAQBAEBn/KtopU13wd1K1rvBeFDgXBp5/gyCL5HxD3hd2Crwpaylvsc2IpynbVKB82WJ+YZ/Nj967ue0ePoc3N6nAfNlifmGfzY/enPaPH0HN6nAfNlifmGfzY/enPaPH0HN6nA+4eTDEi4AxMaCRdxkYbDjYG57EeOo22+hlYaoRj9p6yu9E5dcE/uSs/fD/YVfW/lw7vySLqMpKsCMmsD+q/id7VHDf3syzqrPEd6J9ikRggFuYNk5Nv7vi9KX/NcvPaQ9+/D6HRT6pZ1xG4QBAEAQETimBRy3LeY/iNh6x+a6aWJlDJ5okjVcSl4rQywG0jbDc4Zg9R/LarGnVjUXsnQpqWwiZJFIDklesGDklehgmsB0OnqrPf9FEftOGbh+y38zl1rmq4iMMlmyOU0jScEwGCkbqwMsT4zzm53W78hl0KvqVZTeZE22SajMBAEAQBAEAQBAEAQBAEBis+gmIBzgINYAmzhJFYi+0XcD3hegWOoW63o/wc+pI8MTwjEKOlkMzXx012mQB7HC7nNaCWMcSc9XduWOc4aUlK+fc/wZ1ZWKn8aReUfuP9yk51S4+j/Brqss2A/Ug2I1iSL5ZHMLek7q/EM6q0/Ru6ipVtMEGxhcQ1oJJNgALkk7AANpW7dldmDcNEMNdTUkUT/HAJcOBe4vI7L27F5nFVVUquS2HTBWViZXObBAEAQBAEB8TRNe0te0OadoIuD2LKbTuhcqGMaEaxLqZ4b+w+9uxwuR1EHrXbTxm6aJVV4kINBqwmx8EBxLz+TVK8XT7TblEWbAdC4ICHy/SyDYXDmtP7LePSb9Fly1cTKeSyRHKbZZ1zGgQBAEAQBAEAQBAEAQBAEAQBAeFbSsljdFILteC1w6CFtGTi1JbgzKsZ0bNM4h8YLfsvAyI3dR6Ff0KtKsrrbwOeSaOVo2ADoAH5BdOw1Lvofo85hM07bEghjCNgcLEuG4kZW6SqjG4tSWpB97JoR3sslLhcETtaKCJjjtLGNae8BcEqs5K0pN+JukkdajMhAEAQBAEAQBAEAQBAEAQBAEAQGZaX4/VR1cscczmsbqBobYbY2uO7PMlRybuUOMxVaNeUYyslb6Ih/lLWfrMnePctdZnNzyv87O2k0gqi25neczvTWZHLGV79dnv8e1Pn396azMc9xHzsuGhddJLE8yvLi19gTttqtNu9SRd0XWjK06tNubvZ/ZFhWxZBAEAQBAEB+OF8igPKKljabsY1p4hoHsWznJ7WYsey1MhAEAQBAEBxS4tTtJa6aMEZEFwyPSpVQqtXUX5Eio1GrqLPj47pvPx/fCzzar8r8jPIVPlY+O6bz8f3wnNqvyvyHIVPlZ+txmmJAE8dzs54296PD1V8L8g6FRfCzvUJEEAQBAEAQEfpBWOhpp5WW1o43ubfMXa0kXCxJ2RHVk4wcluRlFHpji8ut4F7pNUXdqQsdYcTZmWxRa0iojisTLq5+BCSVNXVyPlAfK+wc8sZsAAaCQ0WaLN9Sxds5nGVWTla73kd8YPaW53ubZ9RP5LBGqakmTdBXnU8UbTvWTnnDM6Phx8kd6GmoaDybTa0Mpta0n+hqkhsL7RKtTl3/ZFvW5ahAEAQBAEAQBAEAQBAEB51E7Y2ufI4Na0EucTYADMkncFlJydkZSbdkQny1w79ch+8ujmlf5GSchU+Vmb4ljdOZpS2VpBkeQRfMFxIIyV5Ti1CKa3L6FvTdoJPgj8pqtkmbHB1uC3N0z3QyAUBsK8uefCAIAgCAICH0x/Qar9zJ+ErWWxkOI91LuZi+ieLPpaqOSMF1yGOYNr2PIBaBvN7EdIChTsykw9R06ia7i56cU7cOpnxUzSPhsrzI+2TWCx8GCNgzNhw11vJWWW87cUlQg4w+J5/j97TLapwBZfyv9LlojgpxbulwJShq2BmZ3ncUIKlOSZ0fDWcfUUuR6jNM5KpQ6nmI87/ALbFLDYXei4tU5X4/ZF3W5ZhAEAQBAEAQBAEAQBAEBAaff3dVfunLpwnv4d5LQ95HvMu0C0Zp62GpM5LXtMbIn6xAa+S7W3bsdz9XIq2xeInSnHV2b/A7q9WUJKxwU2ANFDXSzMInppYmDM2GtIxj7jY7ac1I67daEYv2ZJv0Zu6n+SKWxpnhol40nUPaVJLr+BNHrFhn8U9RWSQjW7Vk1N3XlihCAIAgCAICH0x/Qar9zJ+ErWWxkOI91LuZjuh+J09LMZ52ve5jT4FrQCPCEEXcSRa2wZHbfcFFFpO5TYepCnLWlu2HZR6TMkpqinr9d/hXGSJ7QHakpJJyLhZt7ZDcXDeieVmbxxClCUKm/NdjKXiGxnpD8LkiR4fa+78HtTeKsM0q9Y9VgjNY5Hf0ab99/tsUtPYW+jvdvv+xf1IWAQBAEAQBAEAQBAEAQBAQGn393VX7py6cJ7+HeS0PeR7zJtHqlrcMxBuuGvLqcsGsA4lrwbtG0225K4rRbxFN2yzO+or1Y+JO4ljENThFTNrNbUS/BmzsuAXSQyxjXDdpDmWOWQt0Fc9OlKniYx+FXt3NPLzI4QcKyW7O3kyp6JeNJ1N9pXdLr+B2R6xYK0/Rv8ARPsWUSFbbI64zO0bytzU/oteUKEIAgCAIAgPiaJr2lrwHNcCHAi4IIsQRvFkMNJqzIX5HUH6pF3LXVRDzaj8qMN5QqExYjURwOMcbTHqsbawvDGTbtJPatGlfYcdWFKMmtVFfjhde75HOtsB3FCO8UvZVjoWDUIDYeRL9Fn/AH/+0xbwO/CdV95oy3OoIAgCAIAgCAIAgCAIAgOTFsPZUQyQSXDZGlpLTYgEbQTvW9ObhJSW42hJxkpLcUf5o6Tz9R3xf/mrDpSp8q9fydXPJ8F6/kzXEtGKhk0rGFhaySRrC69y1ryGk2sL2AvZd0ateUU0ln3/AJOuLqtJ5Zkno7hckOsZS3WdYAN2AD81vDXb1p+hLCMtsiQxM2hkI8h3sKlW0kZS2VL7jPeNw49SkaI7n9PLyRRhAEAQBAEAQBAVzGNB6GqldNNETI62sRI9t9UBouGutewA7FjVRFKjCTu0cXzZ4Z5l/wDNl/qWNVGvNqfAfNnhnmX/AM2X+pNVDm1PgPmzwzzL/wCbL/UmqhzanwJ7AcCp6OMx0zNVpcXG7nOJcQBclxJ2ADsWUrEkIRgrRJJZNwgCAIAgCAIAgCAIAgCAIAgMv0gjAqZQB9sntOZ9ZXocM26Ub8C6oNunHuI+ymJTlxUfQy+g72FZW0MqWDQNfUQseLtdJGCMxcF4B2Laq2oNrgyGbtFs/pdeVKYIAgCAIAgCAIAgCAIAgCAIAgCAID//2Q==;" vertex="1" parent="1">
          <mxGeometry x="496" y="92" width="119" height="97.41" as="geometry" />
        </mxCell>
        <mxCell id="fUqpHQP2NRJlJACCKLOP-9" value="MS365" style="text;html=1;align=center;verticalAlign=middle;whiteSpace=wrap;rounded=0;fontStyle=1" vertex="1" parent="1">
          <mxGeometry x="525" y="58" width="60" height="32" as="geometry" />
        </mxCell>
        <mxCell id="fUqpHQP2NRJlJACCKLOP-10" value="" style="shape=image;verticalLabelPosition=bottom;labelBackgroundColor=default;verticalAlign=top;aspect=fixed;imageAspect=0;image=data:image/png,iVBORw0KGgoAAAANSUhEUgAAAgAAAAIACAYAAAD0eNT6AAAAAXNSR0IArs4c6QAAKgpJREFUeAHt3VusZNl5F/B9Tp9zuqd7Lj3tiS9ziWd8m8FhYnkyjoIcE9mYOHISRC4iEjJCAqREPJAHHkA88AAE8YIQQonEC4kibnKegAgskJLIRDYoDihSHMuXKCjATGLFMeOZiWe6p7s5Xzlfe3XNPt3nsmuvVXv9SirvXbt27bXW76s+37/qdI93bh7eBjcCBAgQIECgK4HdrlZrsQQIECBAgMBKQADwRiBAgAABAh0KCAAdFt2SCRAgQICAAOA9QIAAAQIEOhQQADosuiUTIECAAAEBwHuAAAECBAh0KCAAdFh0SyZAgAABAgKA9wABAgQIEOhQQADosOiWTIAAAQIEBADvAQIECBAg0KGAANBh0S2ZAAECBAgIAN4DBAgQIECgQwEBoMOiWzIBAgQIEBAAvAcIECBAgECHAgJAh0W3ZAIECBAgIAB4DxAgQIAAgQ4FBIAOi27JBAgQIEBAAPAeIECAAAECHQoIAB0W3ZIJECBAgIAA4D1AgAABAgQ6FBAAOiy6JRMgQIAAAQHAe4AAAQIECHQoIAB0WHRLJkCAAAECAoD3AAECBAgQ6FBAAOiw6JZMgAABAgQEAO8BAgQIECDQoYAA0GHRLZkAAQIECAgA3gMECBAgQKBDAQGgw6JbMgECBAgQEAC8BwgQIECAQIcCAkCHRbdkAgQIECAgAHgPECBAgACBDgUEgA6LbskECBAgQEAA8B4gQIAAAQIdCggAHRbdkgkQIECAgADgPUCAAAECBDoUEAA6LLolEyBAgAABAcB7gAABAgQIdCggAHRYdEsmQIAAAQICgPcAAQIECBDoUEAA6LDolkyAAAECBAQA7wECBAgQINChgADQYdEtmQABAgQICADeAwQIECBAoEMBAaDDolsyAQIECBAQALwHCBAgQIBAhwICQIdFt2QCBAgQICAAeA8QIECAAIEOBQSADotuyQQIECBAQADwHiBAgAABAh0KCAAdFt2SCRAgQICAAOA9QIAAAQIEOhQQADosuiUTIECAAAEBwHuAAAECBAh0KCAAdFh0SyZAgAABAgKA9wABAgQIEOhQQADosOiWTIAAAQIEBADvAQIECBAg0KGAANBh0S2ZAAECBAgIAN4DBAgQIECgQwEBoMOiWzIBAgQIEBAAvAcIECBAgECHAgJAh0W3ZAIECBAgIAB4DxAgQIAAgQ4FBIAOi27JBAgQIEBAAPAeIECAAAECHQoIAB0W3ZIJECBAgIAA4D1AgAABAgQ6FBAAOiy6JRMgQIAAAQHAe4AAAQIECHQoIAB0WHRLJkCAAAECAoD3AAECBAgQ6FBAAOiw6JZMgAABAgQEAO8BAgQIECDQoYAA0GHRLZkAAQIECAgA3gMECBAgQKBDAQGgw6JbMgECBAgQEAC8BwgQIECAQIcCAkCHRbdkAgQIECAgAHgPECBAgACBDgUEgA6LbskECBAgQEAA8B4gQIAAAQIdCggAHRbdkgkQIECAgADgPUCAAAECBDoUEAA6LLolEyBAgAABAcB7gAABAgQIdCggAHRYdEsmQIAAAQICgPcAAQIECBDoUEAA6LDolkyAAAECBAQA7wECBAgQINChgADQYdEtmQABAgQI7CFYtsDNmzdHF3jU8dGTHSRAgMAfC+zs7IxaHHV89GQHmxAQAJoow/STKBt87H/mf39u+E+f/9Rq+/svfWX4vRe/Mrz46h9NP3DnV3zwyXd2LtDW8q888UhbE1rIbB7Yu2d448H9w8MXLg9/6vLbhw9eeWq4cnDp1uqEgVsUTe/sHDaH8Y+ITU/b5I4SyHLG9tr114Z/8Wv/fvhnv/rx4fkX/+Colzg+oYAAMCHmBJcSACZAPMYldoed4QNX3jX85Fs/PDx2z5XVK4SAY8BVPkUAqFyAKYcvm/9/+cJ/H/72f/zp4X999bkph3CtuwgIAHcBmvlpAWBe8L2d3eEvvuW7hr/++IeGc4ehIG6CwLw1OMlofgVwEq1Gzy0bf+z/k0/+6+Ef/vLPDXm80WmbFgECCxN47eaN4eef+9TwxZd/f/hHT/3ocPHcwernkBDQZqH9K4A263LiWUWzv3HjxvCT/+4fDz/1Sz+r+Z9Y0AsIEJhK4NMv/PbwE5/9+eHr16+uLunDyFSy015HAJjWc/arxR+sbP7/9L/+2+Ff/c9PzD4HAxIgQGBd4HMvPT/8gy/9Bx9G1mEaeiwANFSMk04lU3V88o/f+f/UL//sSS/hfAIECGxM4D9/5beGX3j+M6vr58+rjQ3mwicWEABOTNbGC/IP0/Xr14dXr10d/s4nfkbSbqM0ZkGAQCHwz//Prwxfu/r14ojdVgQEgFYqcYp5xCf/uP/cZ37x8G/7P3+KK3gJAQIENivwtddeGf7Nc/9t9bMqP7hsdkRXP66AAHBcqYbOiz9EeY9vAH7607/Q0OxMhQABArcLfPzLnxniXwgIALe71H4kANSuwCnGz+Yfn/5//fC/8Pf84X/Vz40AAQKtCsS3AL/xwu+uAkD83HJrQ0AAaKMOx55FJujYxqf/T3zh08d+rRMJECBQS+BT/+9Lt4bOn2O3DtipIiAAVGE/+6CRoiMA/I/nPn/2i7kCAQIENizw2ZeeW/09gA0P4/InEBAAToBV+9RMzbHNbwC+/PJXa0/L+AQIELirwB9ce+m2vwOQP8/u+kInbExAANgY7bQXLv+wxH5+A/DllwSAaaVdjQCBTQj84bWXVz+3/B2ATeie7poCwOncqr2qbP7xK4AXr/q/9K1WDAMTIHBsgZdvXL31TwHzA01uj30RJ04qIABMyjnPxeIPTdwjALgRIEBgWwTi03/+/NqWOS95ngLAFlQ3U3L+wcnm76u0LSieKRIgcEugDADlz7VbJ9iZVUAAmJX77IOVIUAAOLunKxAgMJ9A/MzKEDDfqEY6SkAAOEqmwePrzd+vABoskikRIHCkgOZ/JE2VJwSAKuwnHzS/LotXStEn9/MKAgTqC5QfYnK//qz6nYEAsEW1zz8wuY0g4EaAAIFtEcifXbF1qy8gANSvwYlmUP4BEgBOROdkAgQqC+SvAPLnWOXpdD+8ALAlb4H8A5Pb/IO0JdM3TQIECPgngI29BwSAxgpy3OlkEDju+c4jQIBAbYH8uVVua8+p5/EFgC2ofvxhyVv+wYnH5fF83pYAAQIECBxHQAA4jlIj52TDzxCQjxuZnmkQIEDgjgL5s+uOJ3lyNgEBYDZqAxEgQIBACPjw0sb7QABoow7HnoU/OMemciIBAlsg4GdavSIJAPXsTzTy+h+S9ccnupiTCRAgUEGg/LlV7leYiiEPBQSALX4b+AO0xcUzdQIECFQWEAAqF8DwBAgQIECghoAAUEPdmAQIECBAoLKAAFC5AIYnQIAAAQI1BASAGurGJECAAAEClQUEgMoFMDwBAgQIEKghIADUUDcmAQIECBCoLCAAVC6A4QkQIECAQA0BAaCGujEJECBAgEBlAQGgcgEMT4AAAQIEaggIADXUjUmAAAECBCoLCACVC2B4AgQIECBQQ0AAqKFuTAIECBAgUFlAAKhcAMMTIECAAIEaAgJADXVjEiBAgACBygICQOUCGJ4AAQIECNQQEABqqBuTAAECBAhUFhAAKhfA8AQIECBAoIaAAFBD3ZgECBAgQKCygABQuQCGJ0CAAAECNQQEgBrqxiRAgAABApUFBIDKBTA8AQIECBCoISAA1FA3JgECBAgQqCwgAFQugOEJECBAgEANAQGghroxCRAgQIBAZQEBoHIBDE+AAAECBGoICAA11I1JgAABAgQqCwgAlQtgeAIECBAgUENAAKihbkwCBAgQIFBZQACoXADDEyBAgACBGgICQA11YxIgQIAAgcoCAkDlAhieAAECBAjUEBAAaqgbkwABAgQIVBYQACoXwPAECBAgQKCGgABQQ92YBAgQIECgsoAAULkAhidAgAABAjUEBIAa6sYkQIAAAQKVBQSAygUwPAECBAgQqCEgANRQNyYBAgQIEKgsIABULoDhCRAgQIBADQEBoIa6MQkQIECAQGUBAaByAQxPgAABAgRqCAgANdSNSYAAAQIEKgsIAJULYHgCBAgQIFBDQACooW5MAgQIECBQWUAAqFwAwxMgQIAAgRoCAkANdWMSIECAAIHKAgJA5QIYngABAgQI1BAQAGqoG5MAAQIECFQWEAAqF8DwBAgQIECghoAAUEPdmAQIECBAoLKAAFC5AIYnQIAAAQI1BASAGurGJECAAAEClQUEgMoFMDwBAgQIEKghIADUUDcmAQIECBCoLCAAVC6A4QkQIECAQA0BAaCGujEJECBAgEBlAQGgcgEMT4AAAQIEaggIADXUjUmAAAECBCoLCACVC2B4AgQIECBQQ0AAqKFuTAIECBAgUFlAAKhcAMMTIECAAIEaAgJADXVjEiBAgACBygICQOUCGJ4AAQIECNQQEABqqBuTAAECBAhUFhAAKhfA8AQIECBAoIaAAFBD3ZgECBAgQKCygABQuQCGJ0CAAAECNQQEgBrqxiRAgAABApUFBIDKBTA8AQIECBCoISAA1FA3JgECBAgQqCwgAFQugOEJECBAgEANAQGghroxCRAgQIBAZQEBoHIBDE+AAAECBGoICAA11I1JgAABAgQqCwgAlQtgeAIECBAgUENAAKihbkwCBAgQIFBZQACoXADDEyBAgACBGgICQA11YxIgQIAAgcoCAkDlAhieAAECBAjUEBAAaqgbkwABAgQIVBYQACoXwPAECBAgQKCGgABQQ92YBAgQIECgsoAAULkAhidAgAABAjUEBIAa6sYkQIAAAQKVBQSAygUwPAECBAgQqCEgANRQNyYBAgQIEKgsIABULoDhCRAgQIBADYG9GoMak8BSBb76+S8udWlbua4rTzyylfM2aQJzCPgGYA5lYxAgQIAAgcYEBIDGCmI6BAgQIEBgDgEBYA5lYxAgQIAAgcYEBIDGCmI6BAgQIEBgDgEBYA5lYxAgQIAAgcYEBIDGCmI6BAgQIEBgDgEBYA5lYxAgQIAAgcYEBIDGCmI6BAgQIEBgDgEBYA5lYxAgQIAAgcYEBIDGCmI6BAgQIEBgDgEBYA5lYxAgQIAAgcYEBIDGCmI6BAgQIEBgDgEBYA5lYxAgQIAAgcYEBIDGCmI6BAgQIEBgDgEBYA5lYxAgQIAAgcYEBIDGCmI6BAgQIEBgDgEBYA5lYxAgQIAAgcYEBIDGCmI6BAgQIEBgDgEBYA5lYxAgQIAAgcYEBIDGCmI6BAgQIEBgDgEBYA5lYxAgQIAAgcYEBIDGCmI6BAgQIEBgDgEBYA5lYxAgQIAAgcYEBIDGCmI6BAgQIEBgDgEBYA5lYxAgQIAAgcYEBIDGCmI6BAgQIEBgDgEBYA5lYxAgQIAAgcYEBIDGCmI6BAgQIEBgDgEBYA5lYxAgQIAAgcYEBIDGCmI6BAgQIEBgDgEBYA5lYxAgQIAAgcYEBIDGCmI6BAgQIEBgDgEBYA5lYxAgQIAAgcYEBIDGCmI6BAgQIEBgDgEBYA5lYxAgQIAAgcYEBIDGCmI6BAgQIEBgDgEBYA5lYxAgQIAAgcYEBIDGCmI6BAgQIEBgDgEBYA5lYxAgQIAAgcYEBIDGCmI6BAgQIEBgDoG9OQYxxuYE3nvv48ONG9cP7zeHmzdvHg4U282N58p3Fvjs1efufIJnCRAg0IiAANBIIU47jc/95m+d9qVetwmBxy9u4qquSYAAgckF/ApgclIXJECAAAEC7QsIAO3XyAwJECBAgMDkAgLA5KQuSIAAAQIE2hcQANqvkRkSIECAAIHJBQSAyUldkAABAgQItC8gALRfIzMkQIAAAQKTCwgAk5O6IAECBAgQaF9AAGi/RmZIgAABAgQmFxAAJid1QQIECBAg0L6AANB+jcyQAAECBAhMLiAATE7qggQIECBAoH0BAaD9GpkhAQIECBCYXEAAmJzUBQkQIECAQPsCAkD7NTJDAgQIECAwuYAAMDmpCxIgQIAAgfYFBID2a2SGBAgQIEBgcgEBYHJSFyRAgAABAu0LCADt18gMCRAgQIDA5AICwOSkLkiAAAECBNoXEADar5EZEiBAgACByQUEgMlJXZAAAQIECLQvIAC0XyMzJECAAAECkwsIAJOTuiABAgQIEGhfQABov0ZmSIAAAQIEJhcQACYndUECBAgQINC+gADQfo3MkAABAgQITC4gAExO6oIECBAgQKB9AQGg/RqZIQECBAgQmFxAAJic1AUJECBAgED7AgJA+zUyQwIECBAgMLmAADA5qQsSIECAAIH2BQSA9mtkhgQIECBAYHIBAWByUhckQIAAAQLtCwgA7dfIDAkQIECAwOQCAsDkpC5IgAABAgTaFxAA2q+RGRIgQGDrBS7u7G/9Gpa2AAFgaRW1HgIECDQocPncPatZ7ezsNDi7PqckAPRZd6smQIDArAKXdy4Mmv+s5HcdTAC4K5ETCBAgQOCsAu/Yf8OtSwgCtyiq7ggAVfkNToAAgT4E3nv+Ed8ANFZqAaCxgpgOAQIEliZw6fAvAD55/o2rAODTfzvVFQDaqYWZECBAYJEC33vwjmF/95xvABqrrgDQWEFMhwABAksSiE//33fPk8O5cwJAa3UVAFqriPkQIEBgQQJ/7tyTw71751/39b9fBdQvsgBQvwZmQIAAgUUKfMfwpuFDB08Mu7u7q3s0/fXGv/54kRCNLkoAaLQwpkWAAIFtFnj05r3Dx/aeHvb39281/1yPpp8Sdbd7dYc3OgECBAgsTeDJ6w8Of/Xce4aLh1/9x+/+415+C7C09W7regSAba2ceRMgQKAxgcO/5jd897WHhx/Yfcdwaf/CcHBwcCsA+NTfWLEOpyMAtFcTMyJAgMBWCeweNv4nX7s8fP+1x4e37N8/HOwfrL76z0//0fzjG4DYrt+3aqELm6wAsLCCWg4BAgQ2LXDx5t5w/42D4fLNg+Gd1x4Ynr7x0HD/7vlhb29v1fjj9/6xn1/9a/qbrsjpri8AnM7NqwgQ2AKBv/fCs6/7W+dbMO2mpxjNPG7Z1Fe/29/bXTX8aPrxtX82/wwAsY3z178FaHqhHUxOAOigyJZIoFeBaETZdHo12NS6V43/j7/Wz6/6Yxvm8Q1A2fzLczM4bGpernt8AQHg+FbOJEBgywTi06gAMG3R1r8BiEYft7FP/RkMxgKAIDBtXU5zNQHgNGpeQ4DAVghkU4oG5Da9QIarbPDZ8NP9qG8Bpp+JK55GQAA4jZrXECCwFQLZmASAs5UrP/XHVXK/3IZvNv/cRgjIIFDWwSf/s9ViylcLAFNquhYBAk0JRLMpm09Tk9viyaw3/3g81vjjWBkCsvnnNgjyWlvMsbVTFwC2tnQmToDA3QSiuQgAd1M62fPZsLOJp+96ALjTNwAnG9HZmxIQADYl67oECFQXKJtTNqzqk9riCaw3/3gcxtH8Y5uf9u/U/Ms65PW2mGSrpy4AbHX5TJ4AgTsJ5KfSbFAazp207vxc2mUDz+1RAWDMPl9z55E8O5eAADCXtHEIEJhdIJpQfiqN/bhlI5t9Mls8YGmWTTy2+Q1LhoD1ph+P85zyGurQxptBAGijDmZBgMAGBPKr6AwB2YRyu4EhF3vJNIttec8Gn80+t3k8tuX5iwXawoUJAFtYNFMmQOB4AtH4y/8uvUZ0PLexs8IubrktG3vZ7Mv90jtfV15jdUH/U01AAKhGb2ACBDYtEM0oQ0B+Ms2mtOmxl3j9bOJpmNsMA+vb8vz0yGP52LaegABQz97IBAhsWCCafvlrgGxQmtDp4NOt3Mb+ne7lSPm68pj9egICQD17IxMgsGGBCAB5jyAgAJwNvGzguV82/7h6ebwcLY+Xx+zXFRAA6vobnQCBDQpEw497fv2fjzWj06Gvu+Xj3MZVy/2xx6cb2as2ISAAbELVNQkQaEIgmlE2/QwCcWy9STUx2cYncZTZSY83vsyupicAdFVuiyXQl0A2+/VthAG36QWOCgPTj+SKUwgIAFMougYBAk0KZENaDwAx2XyuyYmbFIEZBMTgGZANQYAAAQIEWhMQAFqriPkQIECAAIEZBASAGZANQYAAAQIEWhMQAFqriPkQIECAAIEZBASAGZANQYAAAQIEWhMQAFqriPkQIECAAIEZBASAGZANQYAAAQIEWhMQAFqriPkQIECAAIEZBASAGZANQYAAAQIEWhMQAFqriPkQIECAAIEZBASAGZANQYAAAQIEWhMQAFqriPkQIECAAIEZBASAGZANQYAAAQIEWhMQAFqriPkQIECAAIEZBASAGZANQYAAAQIEWhMQAFqriPkQIECAAIEZBASAGZANQYAAAQIEWhMQAFqriPkQIECAAIEZBASAGZANQYAAAQIEWhMQAFqriPkQIECAAIEZBASAGZANQYAAAQIEWhMQAFqriPkQIECAAIEZBASAGZANQYAAAQIEWhMQAFqriPkQIECAAIEZBASAGZANQYAAAQIEWhMQAFqriPkQIDCJwMX985Ncx0UILFVAAFhqZa2LQOcCb7z44LCzs9O5guUTOFpAADjaxjMECGyxwMP3PrTFszd1ApsXEAA2b2wEAgQqCLz/kadXo/oWoAK+IbdCQADYijKZJAECJxHY2z03fOSJ9/kVwEnQnNudgADQXcktmMDyBf782797uHzPfQLA8ktthWcQEADOgOelBAi0J/DopYeGH3/6B1fNP77+z3t7MzUjAnUFBIC6/kYnQGBCgSvn7xv+7rN/abiwfzDs7u76BmBCW5dansDe8pZkRQQI9CjwlnuuDH//2b88PP7gw8Pe3p4A0OObwJpPJCAAnIjLyQQItCYQf+HvBx75zuHH3vY9wwOX7rvV/PMbAP8KoLWKmU8rAgJAK5UwDwIETiTwwP6l4f0P/YnhI488Mzxy77cMBwcHw/7+/ioAlN8AZADI7YkGcTKBBQsIAAsurqURWILAwe7ecGnvwur+pguXh7dfevPwzvseHp66/7Fh79y5VdOPxl8GAJ/+l1B5a9i0gACwaWHX70rgX37X3+xqvXMuNj/BxzYbfHzSj3vZ/M8dhoJ8Ps7Ne841r5OPbQn0KiAA9Fp5696IQNl4NjJAxxfNRp7G0ejjHgEgv/ovm3+ep+F3/Kax9DsKCAB35PEkgZMJRCPKRnWyVzr7KIFs4OkajT3vZQjI3/vHc2UQiOvma8trHTWe4wR6ERAAeqm0dc4iEAEgm9MsA3Y0SNnEYz8bfYaAfJz+eX48zsbfEZelErirgABwVyInEDi+QNmMjv8qZx5HIBt6brPRZ+NP+/z0n8/n+ULAcZSd05OAANBTta114wLRZLIhaTjTcqdnbNM5rcvmX+7H83l+zCavMe3MXI3AdgoIANtZN7NuVCAbUjaeRqe5FdNab9b5OBt6WmfDz38RkI/j+axDvmYrFm6SBGYSEABmgjZMHwLZcHIbq87G1YfA9KtMv3KbzT2bfWwzAMQ2HmcNYutGgMDrBQSA15s4QuDUAtFssin51HlqxlsvLJt+HIzH2dizyWfDzwCQ/vl81mH9WrcGsUOgUwEBoNPCW/ZmBMaaz2ZGWtZVszmPrSqfy0YeASDvpXe5nyEhX5PXGLu+YwR6FRAAeq28dW9EIJpQfiKN/Ww8ud3IoAu+aLrFtryvB4B4nAEgn8sQUPLk9cpj9gn0KiAA9Fp5696IQAaADAHZtGIwzed05GlYbssmn/thn/vludxP5+5VyxcQAJZfYyucUSB/Dx3/QaBsSNmAcjvjdBYxVLrFNu75yb7cHtX487UBUe4vAsYiCJxRQAA4I6CXEygF8huA9QCg+ZRKx9svzWI/H8c2m38eX38cI+T56/vHG91ZBJYvIAAsv8ZWOKNABoD8FUD5yXTGaSxmqPUmno+z8a9vY+F5TiKsP87jtgR6FxAAen8HWP+kAtHwIwRkEBAAzs5bNvDcL7fl/vpo+dz6cY8JEBgGAcC7gMCEAtnwcxtBIJpQ3iccqrtLlc38qP1EKZ/PY7YECNwuIADc7uERgTMJZKPPABDbPKYpnYl29eI7Gd7pubOP7AoElicgACyvplZUUaBs9rmfIaDitBY5tIa/yLJa1IwCAsCM2IbqQyAbU25z1euP87gtAQIEagj4f8mooW5MAgQIECBQWUAAqFwAwxMgQIAAgRoCAkANdWMSIECAAIHKAgJA5QIYngABAgQI1BAQAGqoG5MAAQIECFQWEAAqF8DwBAgQIECghoAAUEPdmAQIECBAoLKAAFC5AIYnQIAAAQI1BASAGurGJECAAAEClQUEgMoFMDwBAgQIEKghIADUUDcmAQIECBCoLCAAVC6A4QkQIECAQA0BAaCGujEJECBAgEBlAQGgcgEMT4AAAQIEaggIADXUjUmAAAECBCoLCACVC2B4AgQIECBQQ0AAqKFuTAIECBAgUFlAAKhcAMMTIECAAIEaAgJADXVjEiBAgACBygICQOUCGJ4AAQIECNQQEABqqBuTAAECBAhUFhAAKhfA8AQIECBAoIaAAFBDfaIxd3Z2JrqSyxAgQIBAbwICwJZXfHdHCbe8hKZPgACBKgK6RxX26Qa9cun+6S7mSmcS8I3Mmfi8mACBmQUEgJnBpxoumk3c33Dfg1Nd0nXOKPCGey+f8QpeToAAgfkEBID5rCcbKZt/bB+78ubJrutCZxN48+WHVqHsbFfxagIECMwjIADM4zz5KBkCPvCuZya/tgueTuCpt7xtFQCiNm4ECBBoXUAAaL1CI/PL5r+7uzt8xxPfNlw6f8/IWQ7NLfC93/5+3wDMjW48AgROLSAAnJqu7gsjBEQAONjbH37wPd9TdzJGH972xkeHdz/6dt8AeC8QILA1AgLA1pTq9olmADh37tzww898ePiW+67cfoJHswr8jT/7sVUgy6//czvrJAxGgACBEwgIACfAqnlqNpTcxqf/uEcAuHjhnuHHP/Ajg/8mQJ0Kff97/vTw7W99clWLrE+dmRiVAAECxxcQAI5v1cyZ2WRiGyFgb29veObxdw9/7f0/1Mwce5nIs2/9tuEnPvgXVnXIUBZrL2vUi4V1EiCwXQICwHbVazXbbC7x6T/uEQDi/qGnvnP42Ps+6puAmWr63seeGv7WR//KcP7g/G2f/rM+M03DMAQIEDiVwN6pXuVFswpEQ7l58+atT5UxeHzajFuGgP39/eHg4GD46NMfGB578M3Dz3zy48MLr7y0Osf/TCuwt3tu+LFnPzL80DN/Zrhw/sKtGmRNBIBpvV2NAIHNCOwcNpabm7m0q04lECW6cePG6n79+vXhtddeG65duza8+uqrw9WrV1f3V155Zch7HPvqS18bfvE3Pzn80hd/bbj62rWpptL1daKxP/ut7x5+9L0fHp44/Fv/58+fHy5cuHDrHiEsjsU2v5UZ+7VA14gWT4BAMwICQDOlOHoiEQAyBJQBoAwBGQZyGyEggsILf/Ti8Ctf+vXhN/7vF4bf+cpzw42bN44eyDOjAo9eftPwJw//Iz8ffNf7hkcefNOqwce3LdHs856Po/lnAIhvZwSAUVIHCRBoQEAAaKAId5vCegCIEBDNP+75DUBsMxDkNwRxLL45iPPjGi++8vLwu3/4e6tfDcSvB75+9dXDoX0BdLv/znBh/2C4/8Kl4YF77hu+9bDhxzZ/1RLbaPZxj0af+7kdCwD5K4Hc3j6eRwQIEKgj4O8A1HE/1ajRQPKenyxjm580YxsNKG55XoSBOB5B4MG9B4YHLt63CgM5gQgGbt8QKBt0+sW29M2v9nNb1iH387Wla3nt8rh9AgQI1BIQAGrJn3LcbC6xzYYT22hI0eSjWZVNPR5HCCi/Rcihy/PymO3t/4QvbMN6PQSUj3O/rE04xmM3AgQItCogALRambV5ZTPJJpPNP5pP/gXBCAHZ6PPl2cDyeG7zedtxgXTObemdDT+2Y/tpHlfOuo2P4igBAgTqCQgA9exPNXI0lGgw0chjWwaADALxXN7iWLwmG39u83nbcYFs/PFsNvT0DvMIWxkAMgTE83lu+frxERwlQIBAXQEBoK7/iUbPRp7NJRtOhoD15h7nxV8AjPMiCJTPx77buEC4xS2dY1taZwDIvweQYUDzH/d0lACBNgUEgDbrctusogFlw87mFM0mjkUzysae23xxNP84f/1bgHg+r5fn2n5TII1jm/cyAJSNP5t/+S1Avqa8zjevbo8AAQJtCAgAbdTh2LMom8p6CCgvEufF8xEC1r8FiPMEgFLr9v3SOB3DMpp83jME5OMMCLHN199+VY8IECDQloAA0FY9jpxNNJWyaWdjGntBPpfbaErlrwDKbwrKa45dq6dj4RW3cls29mz2sc1P/rmNY9n84/V5jZ78rJUAge0SEAC2q16r2ZbNJfaj8eQtm082rvVP/9n8c5uvs/2GQNqma27DswwA6/tHNf+8Hl8CBAi0JiAAtFaRO8wnmkl+Ys/Gks0/H8c27xkColnFNwDr3wLkUHnNfNzjNv1i7ekX2zTMbX7SzwCQx/Pc0q68ZnncPgECBFoQEABaqMIJ5hBNJRt2NphoQuWxbEbR8OO5bPy5jXPz/Bi63D/BVBZ3anrGtrxnky+3EQDSOY6Xr10cjAURILBIAQFgy8uajSeWkY0oG9N6AMjGn9t4jeYfCt+4pWW5TdNyW+7HueX569fKx7YECBBoTcD/GVBrFTnmfNYbdz7O5r7+aT+Ox7G45TnlUPn68lgv+9nAc73rTT0eZ9PP59a3+drYxnNuBAgQaF1AAGi9QneZ33rjLpt77pfbuFz5mnL/LkMt/umycef+WKPPYwGS5yXO+uM8bkuAAIHWBASA1ipyivmsN/Hycezn49zGEOX+KYZc9EvKJp77R20TIp/Px7YECBBoXUAAaL1CJ5jfWFMvj5X7edmxY/lcb9uxJl4eK/fTZuxYPmdLgACBlgUEgJarc8q53a2p3+35Uw67qJfdrbHf7flFYVgMAQKLFBAAFlnW4y1KEHi9k8b+ehNHCBBYpoB/BrjMuh5rVZrdsZicRIAAgUUKfPO/IbvI5VkUAQIECBAgMCYgAIypOEaAAAECBBYuIAAsvMCWR4AAAQIExgQEgDEVxwgQIECAwMIFBICFF9jyCBAgQIDAmIAAMKbiGAECBAgQWLiAALDwAlseAQIECBAYExAAxlQcI0CAAAECCxcQABZeYMsjQIAAAQJjAgLAmIpjBAgQIEBg4QICwMILbHkECBAgQGBMQAAYU3GMAAECBAgsXEAAWHiBLY8AAQIECIwJCABjKo4RIECAAIGFCwgACy+w5REgQIAAgTEBAWBMxTECBAgQILBwAQFg4QW2PAIECBAgMCYgAIypOEaAAAECBBYuIAAsvMCWR4AAAQIExgQEgDEVxwgQIECAwMIFBICFF9jyCBAgQIDAmIAAMKbiGAECBAgQWLiAALDwAlseAQIECBAYExAAxlQcI0CAAAECCxcQABZeYMsjQIAAAQJjAgLAmIpjBAgQIEBg4QICwMILbHkECBAgQGBMQAAYU3GMAAECBAgsXEAAWHiBLY8AAQIECIwJCABjKo4RIECAAIGFCwgACy+w5REgQIAAgTEBAWBMxTECBAgQILBwAQFg4QW2PAIECBAgMCYgAIypOEaAAAECBBYuIAAsvMCWR4AAAQIExgQEgDEVxwgQIECAwMIFBICFF9jyCBAgQIDAmIAAMKbiGAECBAgQWLiAALDwAlseAQIECBAYExAAxlQcI0CAAAECCxcQABZeYMsjQIAAAQJjAgLAmIpjBAgQIEBg4QICwMILbHkECBAgQGBMQAAYU3GMAAECBAgsXEAAWHiBLY8AAQIECIwJCABjKo4RIECAAIGFCwgACy+w5REgQIAAgTEBAWBMxTECBAgQILBwAQFg4QW2PAIECBAgMCYgAIypOEaAAAECBBYuIAAsvMCWR4AAAQIExgQEgDEVxwgQIECAwMIFBICFF9jyCBAgQIDAmIAAMKbiGAECBAgQWLiAALDwAlseAQIECBAYExAAxlQcI0CAAAECCxcQABZeYMsjQIAAAQJjAgLAmIpjBAgQIEBg4QICwMILbHkECBAgQGBMQAAYU3GMAAECBAgsXEAAWHiBLY8AAQIECIwJCABjKo4RIECAAIGFCwgACy+w5REgQIAAgTEBAWBMxTECBAgQILBwAQFg4QW2PAIECBAgMCYgAIypOEaAAAECBBYuIAAsvMCWR4AAAQIExgQEgDEVxwgQIECAwMIFBICFF9jyCBAgQIDAmIAAMKbiGAECBAgQWLiAALDwAlseAQIECBAYExAAxlQcI0CAAAECCxcQABZeYMsjQIAAAQJjAgLAmIpjBAgQIEBg4QICwMILbHkECBAgQGBM4P8DA1hDDUJF2NcAAAAASUVORK5CYII=;" vertex="1" parent="1">
          <mxGeometry x="555" y="204" width="47" height="47" as="geometry" />
        </mxCell>
        <mxCell id="fUqpHQP2NRJlJACCKLOP-12" value="" style="shape=image;verticalLabelPosition=bottom;labelBackgroundColor=default;verticalAlign=top;aspect=fixed;imageAspect=0;image=data:image/jpeg,/9j/4AAQSkZJRgABAQAAAQABAAD/2wCEAAkGBw8PDxUPDw8VDxUVFRUVFQ8VFRUVFRUVFRUXFhUVFRUYHSggGBolHRUVITEhJSkrLi4uFx8zODMtNygtLisBCgoKDg0OGhAQGy0mICUtLjIuLjAwLTAvLS0tNy0tLS4tLS8tLS0tLS0tLS0tLSstKy0tLS0tLS0tLS0tLS0tLf/AABEIANwA3AMBEQACEQEDEQH/xAAcAAEBAAMBAQEBAAAAAAAAAAAAAQQFBwYDCAL/xABDEAACAgEBBQMHCgMHBAMAAAAAAQIDBBEFBhIhMQdBYRMiUXGhsbIyMzQ1UnJzgYKRI1NiFEJDwdHh8JKiwtIVJET/xAAaAQEAAwEBAQAAAAAAAAAAAAAAAwQFBgIB/8QAMhEBAAIBAwIDBgUEAwEAAAAAAAECAwQFESExEjNxEzJBQlGhIjRhgZEjscHRFUNSFP/aAAwDAQACEQMRAD8A7gAAAAAAAAAAAAAAAAAAAAAAAAAAAAAAAAKBAKBAAAABQAAAAAAAIAAAAAAAAAAAAAAAAAUABAKAAAAIBQIAAw79q0V3xx52KFk1xQi+XEtdNE+mvgSRivNZvEdIRzlpFopM9ZZhGkAAAAAAAAAAAAAAAAFAAAIAAAAAAAAAAcu7W3pk0Ncv4baff8rqbu0e5aGFu08XrMG6e/8AKrSnNbnDor+soffX95ePX1n3V7ZE/ixfwaTc+Pw5f5dNx74WRU65KcXzUk9U16zCtWazxLci0WjmH0Pj6AAAAAAAAAAAAAAAAAAAAAAAAAA2Botr73YOLqp3Kcv5dfny9nJfmy1h0ebL7sfyq5tZhxd5ct3w3i/+QujYqnVGEXGKb1bTeur05I39FpZ09ZiZ5mWBrdVGe0TEccNAXVJu9295sjAn/DfHW351Mvkv1fZfiVNVo8eeOvSfquaXW3wT9Y+jr2wN4MfOhx0y5r5VT5Ti/FejxOcz6bJgtxaHR4NTTNXmstqV04AAAAAAAAAAAAACgAIAAoEAAY2dtCmiPFdbGtemTSPdMdrzxWOXi+StI5tPDxu2O0qiGscWp3v7cnwQ92svZ6zTw7Vkt1vPDNzbrjr0pHLw+19683K1VlzjF/4cPMj7Ob/Nmrh0OHH2jmfrLKza7Nk7zw0hbU56gAAB98PLspmrKpuua6ST0f8Aujxkx1yV8No6PePJbHbxVl1HdLfyvI0pytKrein0hZ/6y8Dn9Xt1sf4qdY/s6DSbhXJ+G/Sf7vbGY0wAB/M5qK1k0l6XyR9iJns+TMR3YF+3sOElGWRXxNqKipJttvRLREsafLMcxWUU58cTxNobEhTAAAAAAAAFAgAABpd4t58bA0VzcpyWsa4rWTXp8F6yzp9Jkzz+H+VbUarHgj8Tn+2O0bLt1jRGONH7XyrP3fJfkvzNjDtWOvW88/2Y+bdclulI4eRysqy2TnbOVkn/AHpNt+006Y60jiscM2+S155tPL4np4AAAAA1A+2Pi2Wcq65T+7Fv3Hi2SlfenhJXFe3uw3OHudtG3pjSivTNqPvK19wwV+blZpoM9u0PcYFu0dlYkrMtwyK4JcMFJ+Ui20kuNrRx9pkZIwanLEYuYmf4a+Oc2mxTOTiYj+Wiy+03Kl81j1V+MnKb9nCi5TaKR71plTvu9592sNJl757Rt65Lh4QUYe5alqm36evy/wAql9wz2+ZqMjOus52Wzn96TZaripX3YhWtmyW7zL+9kfSafxavjR5zeXb0l6wT/Vr6w/QZxzsAAAAAAKAAgACga7b+168KiV9ndyjHvlJ9IomwYbZrxSqHPmripNrOGbU2hZlXTvtespvXwS7orwR1eHFXFSKVcpmzWy3m1mISogBqBlY2zci35uiyeveoPT9yK2fHX3rQlrgyW7Vlu8PcXaNn+Cq/vyS9hVvuWCvx5Wqbbnt8OG6xOzC5/PZMIeEIuT9uhVvvFflqtU2ifms3mH2bYMNHZK2596clFP8AKKT9pVvuue3biFum14Y78y3eHutgU/Ixa9fS1xP95asqX1ea/e0rVNJhp2rDbV1Rj8mKj6kkQTMz3TxER2f0fH15vtE+rbf0/Ei7t35iqluHkWcVOpcsoADK2R9Jp/Fq+OJFm8u3pKXT+bX1h+gzjnYgAAAAAUCAAAH8X3Rrg5zajGKbcn0SXVn2tZtPEPlpiscy4nvhvDLPyOJNqqGqqh4d82vSzqNFpYwU6957uX1uqnPfp2hj7u7vXZ85QpcVwJOTk9OTei9zJNTqqYIibfF402ltnmfD8HsMTsv/AJ2V+UI/5y/0M2+8f+K/y0qbRHzWbrE7O9nQ5zjO7782l+0dCpfc9RbtPHotU2zBXvHLeYewMOnTyWNXDTv4Fr+75lW+oy3960rVNPip7tYbCMUui09RCm4UABQIBQAHmu0X6tt/T8SLu3fmKqW4eRZxU6pywfAAy9kfSafxavjRFn8u3pKXB5tfWH6EOOdiAAAAAAAAAAGj32+rsj8NlrRefT1VtZ5FvRww6xyToPZB87kfdr98zF3jtT923s/zOmmG2wAAAAAAAAAA832ifVtv6fiRd278xVS3DyLOKnVOWD4AGXsj6TT+LV8aIs3l29JS6fza+sP0Gcc7EAAAAAABQAEA0m+v1dkfhyLWj8+nqrazyLejhh1jknQeyD53I+7X75mLvHan7tvZ/mdNMNtgACgQABQIAAAeb7RPq239PxIu7d+Yqpbh5FnFTqnLKfAAytkfSafxavjiRZvLt6Sl0/m19YfoM452IAAAAAFAgAABpN9fq7I/DkWtH59PVW1nkW9HDDrHJOg9kHzuR92v3zMXeO1P3bez/M6aYbbAAFAgAAAAAUDzXaJ9W2/p+JF3bvzFVLcPIs4qdU5YPgAZeyPpNP4tXxxIs/l29JS4PNr6w/QZxzsQAAAAAKAAgFA0e+v1dkfhyLWj8+nqrazyLejhh1jknQeyD53I+7X75mLvHan7tvZ/mdNMNtgAAAAAAAAAB5vtE+rbf0/Ei7t35iqluHkWcVOqcsHwAMvZH0mn8Wr40RZvLt6Sl0/m19YfoM452IAAAAAAABQAGm3wrlPAvjCLk3W0oxTbfqSLGktFc1Zn6q+riZw2iPo4ZZVKPKUXHwaa951kXrPaXJ2paO8PfdkHzuR92v3yMjeO1P3bGz97OmmE3FAgFAgACgQCgQDzfaJ9W2/p+JF3bvzFVLcPIs4qdU5YPgAZeyPpNP4tXxxIs3l29JS6fza+sP0Gcc7EAAAKBAAAAAAAfK/HrsWk4RmvRJJ+89Raa9peZrFu8NPtLYXBCc9n8OLc11ikoz05qMl00J8efm0Rl6wgyYOImcXSXgo9oG0aZOu6MJSi9JRlDhaa6p6M2P8AjMF6xakz1ZH/ACWek+G0NhjdqMv8XET8Yz09jRDbZ/8AzZLXd/rVtMbtMw5fLqur8dIyXslr7CC205o7TEp67rhnvEtpj78bNn/+lR8JRlH3or20Gor8qxXX4LfM2mPtnFs+byK5+qcSC2HJXvWU9c2O3a0M2M0+jT9T1I+JScw/o+PqAAKB5rtE+rbf0/Ei7t35iqluHkWcVOpcsAAMvZH0mn8Wr44kWby7ekpcHm19YfoQ452KAAAACgQAAAAAAADxXaBun/aYvKoj/FivOiv8SK/8l/sae3632U+C/uz9mZr9H7WPHXvH3cn/AOaHRxPLnZjjogfABoDl96cy2HyLZx9UpL/M8TipbvEJK5bx2mWzxt69oV/JypvwbUl7SvbQ4Ld6p667PXtZtMbtE2hD5TrsX9UNPbHQgtteCe3MJ67pmjvxLZ43ahavnMWMvGM3H2NMgts8fLb7LFd3n41bTG7TcR/OU21+rhkvY0/YV7bTlj3ZiViu7Yp7xMMbe/e7CysGyqmxucuHSDhKL5ST71oe9Jos2LNFrR0eNVrcOXDNaz1czN5gAADL2R9Jp/Fq+OJFn8u3pKXB5tfWH6DOOdiAAAFAAQAAAAAAAABzTtG3T4W83HjyfO6tdz/mJe/9zb27W/8AVf8Ab/TE3HRf9tP3c8NtiAAAAAAAAAAAAAes3J3Uuy7IXy1rphJS49Oc3FppR8OXUzddraY6zSOsy09DorZLReekQ7Gc26MAgFAAAIAAAAAAAAAkoppprVPk0+/wB3cf393WeHZ5alfwJvp/Lk/7v3fR+x0e36z2tfBb3o+7nNw0fs7eOvafs8kabMbbG3cy7aFkVUuyDbWsWm1p11j1K1tXipfwWniVqujy2p46xzDV21yi+GUXF+hpp/syxW0WjmJV7Vms8TD+T68gAAAAAARD325u4bt4cjNi4w5ONHfL0OfoXh3mNrdyiOaYu/1/02tHt3P48v8ADp9cFFKMUopcklySXgjDmeestuIiOkP6Pj6gFAgACgQAAAAAAAAAA+OZi13VyqtipwktHF96PVLzSYtXu82rFo8Nuzie9u7s8C9w5yrlzrsfevsv+pHUaTVxnpz8Y7uX1mknBf8AT4Okdmf1dD78/iMTc/zEtzbvIhvs/ZWPkLhuphYv6opv8mVMeW+OeazwtXxUvHFo5eS2p2aY09Xj2zof2X58Pb5y/dmji3XJXpeOfsz8u1Y7daTw8ftTcbPx9X5Py0ftVvX/ALeppYtxw37zxP6s3LtuanaOXnLIOL4ZJxa/utNP9mXotExzEqNqzWeJh/J9eQD6UUyskoQi5Sk9FFLVtnm1orHNp6PVKTaeK93U9zNx44+mRlJTt6xr6xr/ANZe45/WbjbLzSnSv93Q6Pb4xfiv1l7cy2mAAAAABQAEAAAAAAAAoACAYO29k1ZlMqLlyfSS6xl3Sj4kuHNbFeL1RZsNctJrZgbmbMsxMXyFq5xsnzXSSb5SXrRLrM0Zcnjj4o9JinFj8Et8VVkAAYO0dkY2SuG+mFq8UtV6n1RJjzXxzzSeEeTDTJHFo5eS2p2aY09XjWypf2ZefD2+cv3Zo4t2yV9+Ofsz8u1Y7e5PDymXuDtCE1CMI2JvTykZcl4y15pGjXc8E15nozrbZmi3EdXQ90906cCPF85c151r7v6YLuXtZi6rWXzz+n0bOl0dMEfr9XoimuAACgAIBQAACAAAAAAAAAAAAAAAAAFAAQABQIBQIAAAAKAAgAAAAAAAAAAAoEAAAAFAgACgQAAAAUCAAKAAgAAAAAAMerOrnbOmMtZwScl6/H/nUDIAoEAoACAedzd9cGmyVU5yUoPSS4G9GXabfmvWLRHSVO+vw0tNZnq2myts42XFyx7Y2adUuTXri+aIMuDJini8cJ8WfHljmk8s8hSoAA0e1N7cHGn5Ky5cS6xinLh9enT1FvFos2SvirHRVy63Djnw2nq2WzNpU5NflaLFZHpqu5+hrqn4Mgy4r47eG8cSmx5aZK+Kk8wyiNIoACAAKAAAQAAAAAPllXquErJdIpt/kB5unKqrVF3loSnxy8pFTi21c/OWifc+H9gNvthcMfKu+daSS4IcPnPXklqur10Axq3fVHHVljlKdvn66dGm+Dp3cgM3IuksmqCekZRsbXp000AxNmSuslOc7WoV3WxUEl50U2lq/Qv8gMFbXc63cr5xno5RpVc3D+mLfDz19OveB6PHs44Rlpw8UU9PRqtdAPGbpVRltPP4oqWk46apPTqaurmY0+LhmaWInUZef0YqohjbwRjjpRjOuTsrjyS8xyfLu+SmSeKcuhmb/CeiPwxj1sRT4x1YV29tt0rbP7csXgk1VjqtzU1H7ckn19ZLXRVpFa+Dxc9557I7a21ptbx+HjtHHdn5G8mT/wDRzONxqtfk7qklw8afX08/O/6SGulx/wBXFx1jrE/oltqsn9PJz0npMMi3a2Tbm5nk7GqcalrgSWjs4X36ddeJ/pPEYMdcOPxR+K0/Z7nNktmyeGelY+7+ezfZONZh+XsrhdZZOfG5pS00eiXPp6fzPu5Zslc3grMxERD5t+HHbF47RzMsHZkf7JtPOpxnw1qmU0l0hJVqS09Tk0S5Z9rp8Vr9+f8AKLF/S1GWtO3H+E2dlbWyNnvLjlqCr8pLRxTlYoc3q+iXJpLTuGSmlx5/ZzXvx+3Jjvqb4PaRbtz+767S3ry5YGNfD+ErJON18Y8XDwvh1S7tdGzzj0WKM96T147Q9ZNZlnDS0dOe8vUbp5HlKXJZizVxcrNFGUeXyZLuf5FDV18N+PB4V7S28VefF4m7KqyAAAFAgAAAAAYe1cSV0FWmlFyjx698E9Wl6+QEydlUThKCqhHVNKShFNehpgYV+BkylU+KuXk4rlLi0dnTj5eHT1gZF+JdbBccoQshNTg4puPLuafPnzAVYVzvhdbOPmxnHginp52nNa9XyA++zcR1KabT4rbJrT0TeqQGLjYORTHyVVkPJrXhck3KCfSPXR6AbVAeKluxtCvKvyMbKrqV0tWnFt6LomakavBbHWmSszwzJ0ueuS18dojls93d11jWTyLrXkXzWkrXyST6qK/JEGp1k5axSscVj4J9PpPZ2m9p5tPxYEN1MnHsm8PIrjXZLicLa1Nxb68LJp1uPJWPa1nmPpPCL/48lLT7O0cT9Y5bPbewZZOCsZzj5RcMlbw8K44vXi0XTv8A3K+DUxizePjp9P0T5tPOTF4Oev1/Vd1NgPDonXbJWzsnKdk+6Wq0S59eXvY1ep9teJrHERHQ0un9lSYt1me7Sy3Mysecns/NdEJvV1tapeotRr8eSI9tTmY+KtOhyUmfY34ifgztnbtRwsbInKx3W2V2Odr7/Nb0X58yLJq5z5KREcRExxCTHpYw47zM8zMTzLzO62w8vK2eo05nka5ynGytx179Hwvu1XVF7VajFiz82pzMccSpaXT5MmDit+Inu9bPYWRRj1UYN8IRhFxlG2HGp6vVyfjrr+5nRqMd72vljnn6T2aE6e9KRTFPb6/F9N1N3f7DGxysVk7ZcUuFcMF4Rj3LmedXqvbzHEcRD7pdN7GJ5nrLfFRbAAFAgAAAAAAAAABQIAAAAAAABQIBQP4srUouMlqmmmvSnyaPsTMTzD5MRMcS+OBg1Y8PJ0wVcU2+FdNX1PWTJbJPitPMvNMdaRxWOIZJ4ewABAAACgQAAAAAAAAAAAAAAAAAoEAAUCAAAAAAAAUABAAAAAAAAKAAgFAgFAAAAAAAAAAAAAAAAAAH/9k=;" vertex="1" parent="1">
          <mxGeometry x="503" y="208" width="47" height="47" as="geometry" />
        </mxCell>
        <mxCell id="fUqpHQP2NRJlJACCKLOP-13" value="&lt;i&gt;Gestión de proyectos&lt;/i&gt;" style="text;html=1;align=center;verticalAlign=middle;whiteSpace=wrap;rounded=0;" vertex="1" parent="1">
          <mxGeometry x="482" y="253" width="153" height="30" as="geometry" />
        </mxCell>
        <mxCell id="fUqpHQP2NRJlJACCKLOP-14" value="" style="ellipse;whiteSpace=wrap;html=1;aspect=fixed;fillColor=#fff2cc;strokeColor=#d6b656;" vertex="1" parent="1">
          <mxGeometry x="507" y="293" width="98" height="98" as="geometry" />
        </mxCell>
        <mxCell id="fUqpHQP2NRJlJACCKLOP-15" value="MyTime" style="text;html=1;align=center;verticalAlign=middle;whiteSpace=wrap;rounded=0;fontStyle=1" vertex="1" parent="1">
          <mxGeometry x="528" y="305" width="60" height="30" as="geometry" />
        </mxCell>
        <mxCell id="fUqpHQP2NRJlJACCKLOP-16" value="&lt;i&gt;Gestión de&amp;nbsp;&lt;/i&gt;&lt;div&gt;&lt;i&gt;planificaciones&lt;/i&gt;&lt;/div&gt;" style="text;html=1;align=center;verticalAlign=middle;whiteSpace=wrap;rounded=0;" vertex="1" parent="1">
          <mxGeometry x="482" y="334" width="153" height="30" as="geometry" />
        </mxCell>
        <mxCell id="fUqpHQP2NRJlJACCKLOP-18" value="&lt;i&gt;Paquete ofimático de trabajo diario&lt;/i&gt;" style="text;html=1;align=center;verticalAlign=middle;whiteSpace=wrap;rounded=0;" vertex="1" parent="1">
          <mxGeometry x="471" y="25" width="153" height="30" as="geometry" />
        </mxCell>
        <mxCell id="fUqpHQP2NRJlJACCKLOP-21" value="&lt;div style=&quot;text-align: center;&quot;&gt;&lt;span style=&quot;background-color: initial;&quot;&gt;&lt;i&gt;&lt;font style=&quot;font-size: 9px;&quot;&gt;*Desarrollo a medida&lt;/font&gt;&lt;/i&gt;&lt;/span&gt;&lt;/div&gt;" style="text;whiteSpace=wrap;html=1;" vertex="1" parent="1">
          <mxGeometry x="593.999959309896" y="369.0000101725261" width="107" height="51" as="geometry" />
        </mxCell>
        <mxCell id="fUqpHQP2NRJlJACCKLOP-42" value="ERP: Datos de negocio" style="shape=rect;rounded=1;whiteSpace=wrap;html=1;shadow=0;strokeColor=none;fillColor=#64BBE2;arcSize=30;fontSize=14;spacingLeft=42;fontStyle=1;fontColor=#FFFFFF;align=left;" vertex="1" parent="1">
          <mxGeometry x="418" y="470" width="220" height="40" as="geometry" />
        </mxCell>
        <mxCell id="fUqpHQP2NRJlJACCKLOP-43" value="1" style="shape=ellipse;perimeter=ellipsePerimeter;fontSize=22;fontStyle=1;shadow=0;strokeColor=#ffffff;fillColor=#10739E;strokeWidth=4;fontColor=#ffffff;align=center;whiteSpace=wrap;html=1;" vertex="1" parent="1">
          <mxGeometry x="388" y="460" width="60" height="60" as="geometry" />
        </mxCell>
        <mxCell id="fUqpHQP2NRJlJACCKLOP-44" value="Gestión de planificaciones" style="shape=rect;rounded=1;whiteSpace=wrap;html=1;shadow=0;strokeColor=none;fillColor=#F8C382;arcSize=30;fontSize=14;spacingLeft=42;fontStyle=1;fontColor=#FFFFFF;align=left;" vertex="1" parent="1">
          <mxGeometry x="418" y="535" width="220" height="40" as="geometry" />
        </mxCell>
        <mxCell id="fUqpHQP2NRJlJACCKLOP-45" value="2" style="shape=ellipse;perimeter=ellipsePerimeter;fontSize=22;fontStyle=1;shadow=0;strokeColor=#ffffff;fillColor=#F2931E;strokeWidth=4;fontColor=#ffffff;align=center;whiteSpace=wrap;html=1;" vertex="1" parent="1">
          <mxGeometry x="388" y="525" width="60" height="60" as="geometry" />
        </mxCell>
        <mxCell id="fUqpHQP2NRJlJACCKLOP-46" value="Gestión de proyectos" style="shape=rect;rounded=1;whiteSpace=wrap;html=1;shadow=0;strokeColor=none;fillColor=#F08E81;arcSize=30;fontSize=14;spacingLeft=42;fontStyle=1;fontColor=#FFFFFF;align=left;" vertex="1" parent="1">
          <mxGeometry x="418" y="600" width="220" height="40" as="geometry" />
        </mxCell>
        <mxCell id="fUqpHQP2NRJlJACCKLOP-47" value="3" style="shape=ellipse;perimeter=ellipsePerimeter;fontSize=22;fontStyle=1;shadow=0;strokeColor=#ffffff;fillColor=#AE4132;strokeWidth=4;fontColor=#ffffff;align=center;whiteSpace=wrap;html=1;" vertex="1" parent="1">
          <mxGeometry x="388" y="590" width="60" height="60" as="geometry" />
        </mxCell>
        <mxCell id="fUqpHQP2NRJlJACCKLOP-48" value="Gestión de la actividad diaria por recurso" style="shape=rect;rounded=1;whiteSpace=wrap;html=1;shadow=0;strokeColor=none;fillColor=#5D7F99;arcSize=30;fontSize=14;spacingLeft=42;fontStyle=1;fontColor=#FFFFFF;align=left;" vertex="1" parent="1">
          <mxGeometry x="418" y="665" width="220" height="40" as="geometry" />
        </mxCell>
        <mxCell id="fUqpHQP2NRJlJACCKLOP-49" value="4" style="shape=ellipse;perimeter=ellipsePerimeter;fontSize=22;fontStyle=1;shadow=0;strokeColor=#ffffff;fillColor=#23445D;strokeWidth=4;fontColor=#ffffff;align=center;whiteSpace=wrap;html=1;" vertex="1" parent="1">
          <mxGeometry x="388" y="655" width="60" height="60" as="geometry" />
        </mxCell>
        <mxCell id="fUqpHQP2NRJlJACCKLOP-52" value="" style="shape=image;verticalLabelPosition=bottom;labelBackgroundColor=default;verticalAlign=top;aspect=fixed;imageAspect=0;image=data:image/png,iVBORw0KGgoAAAANSUhEUgAAAgAAAAIACAYAAAD0eNT6AAAAAXNSR0IArs4c6QAAKgpJREFUeAHt3VusZNl5F/B9Tp9zuqd7Lj3tiS9ziWd8m8FhYnkyjoIcE9mYOHISRC4iEjJCAqREPJAHHkA88AAE8YIQQonEC4kibnKegAgskJLIRDYoDihSHMuXKCjATGLFMeOZiWe6p7s5Xzlfe3XNPt3nsmuvVXv9SirvXbt27bXW76s+37/qdI93bh7eBjcCBAgQIECgK4HdrlZrsQQIECBAgMBKQADwRiBAgAABAh0KCAAdFt2SCRAgQICAAOA9QIAAAQIEOhQQADosuiUTIECAAAEBwHuAAAECBAh0KCAAdFh0SyZAgAABAgKA9wABAgQIEOhQQADosOiWTIAAAQIEBADvAQIECBAg0KGAANBh0S2ZAAECBAgIAN4DBAgQIECgQwEBoMOiWzIBAgQIEBAAvAcIECBAgECHAgJAh0W3ZAIECBAgIAB4DxAgQIAAgQ4FBIAOi27JBAgQIEBAAPAeIECAAAECHQoIAB0W3ZIJECBAgIAA4D1AgAABAgQ6FBAAOiy6JRMgQIAAAQHAe4AAAQIECHQoIAB0WHRLJkCAAAECAoD3AAECBAgQ6FBAAOiw6JZMgAABAgQEAO8BAgQIECDQoYAA0GHRLZkAAQIECAgA3gMECBAgQKBDAQGgw6JbMgECBAgQEAC8BwgQIECAQIcCAkCHRbdkAgQIECAgAHgPECBAgACBDgUEgA6LbskECBAgQEAA8B4gQIAAAQIdCggAHRbdkgkQIECAgADgPUCAAAECBDoUEAA6LLolEyBAgAABAcB7gAABAgQIdCggAHRYdEsmQIAAAQICgPcAAQIECBDoUEAA6LDolkyAAAECBAQA7wECBAgQINChgADQYdEtmQABAgQICADeAwQIECBAoEMBAaDDolsyAQIECBAQALwHCBAgQIBAhwICQIdFt2QCBAgQICAAeA8QIECAAIEOBQSADotuyQQIECBAQADwHiBAgAABAh0KCAAdFt2SCRAgQICAAOA9QIAAAQIEOhQQADosuiUTIECAAAEBwHuAAAECBAh0KCAAdFh0SyZAgAABAgKA9wABAgQIEOhQQADosOiWTIAAAQIEBADvAQIECBAg0KGAANBh0S2ZAAECBAgIAN4DBAgQIECgQwEBoMOiWzIBAgQIEBAAvAcIECBAgECHAgJAh0W3ZAIECBAgIAB4DxAgQIAAgQ4FBIAOi27JBAgQIEBAAPAeIECAAAECHQoIAB0W3ZIJECBAgIAA4D1AgAABAgQ6FBAAOiy6JRMgQIAAAQHAe4AAAQIECHQoIAB0WHRLJkCAAAECAoD3AAECBAgQ6FBAAOiw6JZMgAABAgQEAO8BAgQIECDQoYAA0GHRLZkAAQIECAgA3gMECBAgQKBDAQGgw6JbMgECBAgQEAC8BwgQIECAQIcCAkCHRbdkAgQIECAgAHgPECBAgACBDgUEgA6LbskECBAgQEAA8B4gQIAAAQIdCggAHRbdkgkQIECAgADgPUCAAAECBDoUEAA6LLolEyBAgAABAcB7gAABAgQIdCggAHRYdEsmQIAAAQICgPcAAQIECBDoUEAA6LDolkyAAAECBAQA7wECBAgQINChgADQYdEtmQABAgQI7CFYtsDNmzdHF3jU8dGTHSRAgMAfC+zs7IxaHHV89GQHmxAQAJoow/STKBt87H/mf39u+E+f/9Rq+/svfWX4vRe/Mrz46h9NP3DnV3zwyXd2LtDW8q888UhbE1rIbB7Yu2d448H9w8MXLg9/6vLbhw9eeWq4cnDp1uqEgVsUTe/sHDaH8Y+ITU/b5I4SyHLG9tr114Z/8Wv/fvhnv/rx4fkX/+Colzg+oYAAMCHmBJcSACZAPMYldoed4QNX3jX85Fs/PDx2z5XVK4SAY8BVPkUAqFyAKYcvm/9/+cJ/H/72f/zp4X999bkph3CtuwgIAHcBmvlpAWBe8L2d3eEvvuW7hr/++IeGc4ehIG6CwLw1OMlofgVwEq1Gzy0bf+z/k0/+6+Ef/vLPDXm80WmbFgECCxN47eaN4eef+9TwxZd/f/hHT/3ocPHcwernkBDQZqH9K4A263LiWUWzv3HjxvCT/+4fDz/1Sz+r+Z9Y0AsIEJhK4NMv/PbwE5/9+eHr16+uLunDyFSy015HAJjWc/arxR+sbP7/9L/+2+Ff/c9PzD4HAxIgQGBd4HMvPT/8gy/9Bx9G1mEaeiwANFSMk04lU3V88o/f+f/UL//sSS/hfAIECGxM4D9/5beGX3j+M6vr58+rjQ3mwicWEABOTNbGC/IP0/Xr14dXr10d/s4nfkbSbqM0ZkGAQCHwz//Prwxfu/r14ojdVgQEgFYqcYp5xCf/uP/cZ37x8G/7P3+KK3gJAQIENivwtddeGf7Nc/9t9bMqP7hsdkRXP66AAHBcqYbOiz9EeY9vAH7607/Q0OxMhQABArcLfPzLnxniXwgIALe71H4kANSuwCnGz+Yfn/5//fC/8Pf84X/Vz40AAQKtCsS3AL/xwu+uAkD83HJrQ0AAaKMOx55FJujYxqf/T3zh08d+rRMJECBQS+BT/+9Lt4bOn2O3DtipIiAAVGE/+6CRoiMA/I/nPn/2i7kCAQIENizw2ZeeW/09gA0P4/InEBAAToBV+9RMzbHNbwC+/PJXa0/L+AQIELirwB9ce+m2vwOQP8/u+kInbExAANgY7bQXLv+wxH5+A/DllwSAaaVdjQCBTQj84bWXVz+3/B2ATeie7poCwOncqr2qbP7xK4AXr/q/9K1WDAMTIHBsgZdvXL31TwHzA01uj30RJ04qIABMyjnPxeIPTdwjALgRIEBgWwTi03/+/NqWOS95ngLAFlQ3U3L+wcnm76u0LSieKRIgcEugDADlz7VbJ9iZVUAAmJX77IOVIUAAOLunKxAgMJ9A/MzKEDDfqEY6SkAAOEqmwePrzd+vABoskikRIHCkgOZ/JE2VJwSAKuwnHzS/LotXStEn9/MKAgTqC5QfYnK//qz6nYEAsEW1zz8wuY0g4EaAAIFtEcifXbF1qy8gANSvwYlmUP4BEgBOROdkAgQqC+SvAPLnWOXpdD+8ALAlb4H8A5Pb/IO0JdM3TQIECPgngI29BwSAxgpy3OlkEDju+c4jQIBAbYH8uVVua8+p5/EFgC2ofvxhyVv+wYnH5fF83pYAAQIECBxHQAA4jlIj52TDzxCQjxuZnmkQIEDgjgL5s+uOJ3lyNgEBYDZqAxEgQIBACPjw0sb7QABoow7HnoU/OMemciIBAlsg4GdavSIJAPXsTzTy+h+S9ccnupiTCRAgUEGg/LlV7leYiiEPBQSALX4b+AO0xcUzdQIECFQWEAAqF8DwBAgQIECghoAAUEPdmAQIECBAoLKAAFC5AIYnQIAAAQI1BASAGurGJECAAAEClQUEgMoFMDwBAgQIEKghIADUUDcmAQIECBCoLCAAVC6A4QkQIECAQA0BAaCGujEJECBAgEBlAQGgcgEMT4AAAQIEaggIADXUjUmAAAECBCoLCACVC2B4AgQIECBQQ0AAqKFuTAIECBAgUFlAAKhcAMMTIECAAIEaAgJADXVjEiBAgACBygICQOUCGJ4AAQIECNQQEABqqBuTAAECBAhUFhAAKhfA8AQIECBAoIaAAFBD3ZgECBAgQKCygABQuQCGJ0CAAAECNQQEgBrqxiRAgAABApUFBIDKBTA8AQIECBCoISAA1FA3JgECBAgQqCwgAFQugOEJECBAgEANAQGghroxCRAgQIBAZQEBoHIBDE+AAAECBGoICAA11I1JgAABAgQqCwgAlQtgeAIECBAgUENAAKihbkwCBAgQIFBZQACoXADDEyBAgACBGgICQA11YxIgQIAAgcoCAkDlAhieAAECBAjUEBAAaqgbkwABAgQIVBYQACoXwPAECBAgQKCGgABQQ92YBAgQIECgsoAAULkAhidAgAABAjUEBIAa6sYkQIAAAQKVBQSAygUwPAECBAgQqCEgANRQNyYBAgQIEKgsIABULoDhCRAgQIBADQEBoIa6MQkQIECAQGUBAaByAQxPgAABAgRqCAgANdSNSYAAAQIEKgsIAJULYHgCBAgQIFBDQACooW5MAgQIECBQWUAAqFwAwxMgQIAAgRoCAkANdWMSIECAAIHKAgJA5QIYngABAgQI1BAQAGqoG5MAAQIECFQWEAAqF8DwBAgQIECghoAAUEPdmAQIECBAoLKAAFC5AIYnQIAAAQI1BASAGurGJECAAAEClQUEgMoFMDwBAgQIEKghIADUUDcmAQIECBCoLCAAVC6A4QkQIECAQA0BAaCGujEJECBAgEBlAQGgcgEMT4AAAQIEaggIADXUjUmAAAECBCoLCACVC2B4AgQIECBQQ0AAqKFuTAIECBAgUFlAAKhcAMMTIECAAIEaAgJADXVjEiBAgACBygICQOUCGJ4AAQIECNQQEABqqBuTAAECBAhUFhAAKhfA8AQIECBAoIaAAFBD3ZgECBAgQKCygABQuQCGJ0CAAAECNQQEgBrqxiRAgAABApUFBIDKBTA8AQIECBCoISAA1FA3JgECBAgQqCwgAFQugOEJECBAgEANAQGghroxCRAgQIBAZQEBoHIBDE+AAAECBGoICAA11I1JgAABAgQqCwgAlQtgeAIECBAgUENAAKihbkwCBAgQIFBZQACoXADDEyBAgACBGgICQA11YxIgQIAAgcoCAkDlAhieAAECBAjUEBAAaqgbkwABAgQIVBYQACoXwPAECBAgQKCGgABQQ92YBAgQIECgsoAAULkAhidAgAABAjUEBIAa6sYkQIAAAQKVBQSAygUwPAECBAgQqCEgANRQNyYBAgQIEKgsIABULoDhCRAgQIBADYG9GoMak8BSBb76+S8udWlbua4rTzyylfM2aQJzCPgGYA5lYxAgQIAAgcYEBIDGCmI6BAgQIEBgDgEBYA5lYxAgQIAAgcYEBIDGCmI6BAgQIEBgDgEBYA5lYxAgQIAAgcYEBIDGCmI6BAgQIEBgDgEBYA5lYxAgQIAAgcYEBIDGCmI6BAgQIEBgDgEBYA5lYxAgQIAAgcYEBIDGCmI6BAgQIEBgDgEBYA5lYxAgQIAAgcYEBIDGCmI6BAgQIEBgDgEBYA5lYxAgQIAAgcYEBIDGCmI6BAgQIEBgDgEBYA5lYxAgQIAAgcYEBIDGCmI6BAgQIEBgDgEBYA5lYxAgQIAAgcYEBIDGCmI6BAgQIEBgDgEBYA5lYxAgQIAAgcYEBIDGCmI6BAgQIEBgDgEBYA5lYxAgQIAAgcYEBIDGCmI6BAgQIEBgDgEBYA5lYxAgQIAAgcYEBIDGCmI6BAgQIEBgDgEBYA5lYxAgQIAAgcYEBIDGCmI6BAgQIEBgDgEBYA5lYxAgQIAAgcYEBIDGCmI6BAgQIEBgDgEBYA5lYxAgQIAAgcYEBIDGCmI6BAgQIEBgDgEBYA5lYxAgQIAAgcYEBIDGCmI6BAgQIEBgDgEBYA5lYxAgQIAAgcYEBIDGCmI6BAgQIEBgDgEBYA5lYxAgQIAAgcYEBIDGCmI6BAgQIEBgDgEBYA5lYxAgQIAAgcYEBIDGCmI6BAgQIEBgDgEBYA5lYxAgQIAAgcYEBIDGCmI6BAgQIEBgDoG9OQYxxuYE3nvv48ONG9cP7zeHmzdvHg4U282N58p3Fvjs1efufIJnCRAg0IiAANBIIU47jc/95m+d9qVetwmBxy9u4qquSYAAgckF/ApgclIXJECAAAEC7QsIAO3XyAwJECBAgMDkAgLA5KQuSIAAAQIE2hcQANqvkRkSIECAAIHJBQSAyUldkAABAgQItC8gALRfIzMkQIAAAQKTCwgAk5O6IAECBAgQaF9AAGi/RmZIgAABAgQmFxAAJid1QQIECBAg0L6AANB+jcyQAAECBAhMLiAATE7qggQIECBAoH0BAaD9GpkhAQIECBCYXEAAmJzUBQkQIECAQPsCAkD7NTJDAgQIECAwuYAAMDmpCxIgQIAAgfYFBID2a2SGBAgQIEBgcgEBYHJSFyRAgAABAu0LCADt18gMCRAgQIDA5AICwOSkLkiAAAECBNoXEADar5EZEiBAgACByQUEgMlJXZAAAQIECLQvIAC0XyMzJECAAAECkwsIAJOTuiABAgQIEGhfQABov0ZmSIAAAQIEJhcQACYndUECBAgQINC+gADQfo3MkAABAgQITC4gAExO6oIECBAgQKB9AQGg/RqZIQECBAgQmFxAAJic1AUJECBAgED7AgJA+zUyQwIECBAgMLmAADA5qQsSIECAAIH2BQSA9mtkhgQIECBAYHIBAWByUhckQIAAAQLtCwgA7dfIDAkQIECAwOQCAsDkpC5IgAABAgTaFxAA2q+RGRIgQGDrBS7u7G/9Gpa2AAFgaRW1HgIECDQocPncPatZ7ezsNDi7PqckAPRZd6smQIDArAKXdy4Mmv+s5HcdTAC4K5ETCBAgQOCsAu/Yf8OtSwgCtyiq7ggAVfkNToAAgT4E3nv+Ed8ANFZqAaCxgpgOAQIEliZw6fAvAD55/o2rAODTfzvVFQDaqYWZECBAYJEC33vwjmF/95xvABqrrgDQWEFMhwABAksSiE//33fPk8O5cwJAa3UVAFqriPkQIEBgQQJ/7tyTw71751/39b9fBdQvsgBQvwZmQIAAgUUKfMfwpuFDB08Mu7u7q3s0/fXGv/54kRCNLkoAaLQwpkWAAIFtFnj05r3Dx/aeHvb39281/1yPpp8Sdbd7dYc3OgECBAgsTeDJ6w8Of/Xce4aLh1/9x+/+415+C7C09W7regSAba2ceRMgQKAxgcO/5jd897WHhx/Yfcdwaf/CcHBwcCsA+NTfWLEOpyMAtFcTMyJAgMBWCeweNv4nX7s8fP+1x4e37N8/HOwfrL76z0//0fzjG4DYrt+3aqELm6wAsLCCWg4BAgQ2LXDx5t5w/42D4fLNg+Gd1x4Ynr7x0HD/7vlhb29v1fjj9/6xn1/9a/qbrsjpri8AnM7NqwgQ2AKBv/fCs6/7W+dbMO2mpxjNPG7Z1Fe/29/bXTX8aPrxtX82/wwAsY3z178FaHqhHUxOAOigyJZIoFeBaETZdHo12NS6V43/j7/Wz6/6Yxvm8Q1A2fzLczM4bGpernt8AQHg+FbOJEBgywTi06gAMG3R1r8BiEYft7FP/RkMxgKAIDBtXU5zNQHgNGpeQ4DAVghkU4oG5Da9QIarbPDZ8NP9qG8Bpp+JK55GQAA4jZrXECCwFQLZmASAs5UrP/XHVXK/3IZvNv/cRgjIIFDWwSf/s9ViylcLAFNquhYBAk0JRLMpm09Tk9viyaw3/3g81vjjWBkCsvnnNgjyWlvMsbVTFwC2tnQmToDA3QSiuQgAd1M62fPZsLOJp+96ALjTNwAnG9HZmxIQADYl67oECFQXKJtTNqzqk9riCaw3/3gcxtH8Y5uf9u/U/Ms65PW2mGSrpy4AbHX5TJ4AgTsJ5KfSbFAazp207vxc2mUDz+1RAWDMPl9z55E8O5eAADCXtHEIEJhdIJpQfiqN/bhlI5t9Mls8YGmWTTy2+Q1LhoD1ph+P85zyGurQxptBAGijDmZBgMAGBPKr6AwB2YRyu4EhF3vJNIttec8Gn80+t3k8tuX5iwXawoUJAFtYNFMmQOB4AtH4y/8uvUZ0PLexs8IubrktG3vZ7Mv90jtfV15jdUH/U01AAKhGb2ACBDYtEM0oQ0B+Ms2mtOmxl3j9bOJpmNsMA+vb8vz0yGP52LaegABQz97IBAhsWCCafvlrgGxQmtDp4NOt3Mb+ne7lSPm68pj9egICQD17IxMgsGGBCAB5jyAgAJwNvGzguV82/7h6ebwcLY+Xx+zXFRAA6vobnQCBDQpEw497fv2fjzWj06Gvu+Xj3MZVy/2xx6cb2as2ISAAbELVNQkQaEIgmlE2/QwCcWy9STUx2cYncZTZSY83vsyupicAdFVuiyXQl0A2+/VthAG36QWOCgPTj+SKUwgIAFMougYBAk0KZENaDwAx2XyuyYmbFIEZBMTgGZANQYAAAQIEWhMQAFqriPkQIECAAIEZBASAGZANQYAAAQIEWhMQAFqriPkQIECAAIEZBASAGZANQYAAAQIEWhMQAFqriPkQIECAAIEZBASAGZANQYAAAQIEWhMQAFqriPkQIECAAIEZBASAGZANQYAAAQIEWhMQAFqriPkQIECAAIEZBASAGZANQYAAAQIEWhMQAFqriPkQIECAAIEZBASAGZANQYAAAQIEWhMQAFqriPkQIECAAIEZBASAGZANQYAAAQIEWhMQAFqriPkQIECAAIEZBASAGZANQYAAAQIEWhMQAFqriPkQIECAAIEZBASAGZANQYAAAQIEWhMQAFqriPkQIECAAIEZBASAGZANQYAAAQIEWhMQAFqriPkQIECAAIEZBASAGZANQYAAAQIEWhMQAFqriPkQIECAAIEZBASAGZANQYAAAQIEWhMQAFqriPkQIDCJwMX985Ncx0UILFVAAFhqZa2LQOcCb7z44LCzs9O5guUTOFpAADjaxjMECGyxwMP3PrTFszd1ApsXEAA2b2wEAgQqCLz/kadXo/oWoAK+IbdCQADYijKZJAECJxHY2z03fOSJ9/kVwEnQnNudgADQXcktmMDyBf782797uHzPfQLA8ktthWcQEADOgOelBAi0J/DopYeGH3/6B1fNP77+z3t7MzUjAnUFBIC6/kYnQGBCgSvn7xv+7rN/abiwfzDs7u76BmBCW5dansDe8pZkRQQI9CjwlnuuDH//2b88PP7gw8Pe3p4A0OObwJpPJCAAnIjLyQQItCYQf+HvBx75zuHH3vY9wwOX7rvV/PMbAP8KoLWKmU8rAgJAK5UwDwIETiTwwP6l4f0P/YnhI488Mzxy77cMBwcHw/7+/ioAlN8AZADI7YkGcTKBBQsIAAsurqURWILAwe7ecGnvwur+pguXh7dfevPwzvseHp66/7Fh79y5VdOPxl8GAJ/+l1B5a9i0gACwaWHX70rgX37X3+xqvXMuNj/BxzYbfHzSj3vZ/M8dhoJ8Ps7Ne841r5OPbQn0KiAA9Fp5696IQNl4NjJAxxfNRp7G0ejjHgEgv/ovm3+ep+F3/Kax9DsKCAB35PEkgZMJRCPKRnWyVzr7KIFs4OkajT3vZQjI3/vHc2UQiOvma8trHTWe4wR6ERAAeqm0dc4iEAEgm9MsA3Y0SNnEYz8bfYaAfJz+eX48zsbfEZelErirgABwVyInEDi+QNmMjv8qZx5HIBt6brPRZ+NP+/z0n8/n+ULAcZSd05OAANBTta114wLRZLIhaTjTcqdnbNM5rcvmX+7H83l+zCavMe3MXI3AdgoIANtZN7NuVCAbUjaeRqe5FdNab9b5OBt6WmfDz38RkI/j+axDvmYrFm6SBGYSEABmgjZMHwLZcHIbq87G1YfA9KtMv3KbzT2bfWwzAMQ2HmcNYutGgMDrBQSA15s4QuDUAtFssin51HlqxlsvLJt+HIzH2dizyWfDzwCQ/vl81mH9WrcGsUOgUwEBoNPCW/ZmBMaaz2ZGWtZVszmPrSqfy0YeASDvpXe5nyEhX5PXGLu+YwR6FRAAeq28dW9EIJpQfiKN/Ww8ud3IoAu+aLrFtryvB4B4nAEgn8sQUPLk9cpj9gn0KiAA9Fp5696IQAaADAHZtGIwzed05GlYbssmn/thn/vludxP5+5VyxcQAJZfYyucUSB/Dx3/QaBsSNmAcjvjdBYxVLrFNu75yb7cHtX487UBUe4vAsYiCJxRQAA4I6CXEygF8huA9QCg+ZRKx9svzWI/H8c2m38eX38cI+T56/vHG91ZBJYvIAAsv8ZWOKNABoD8FUD5yXTGaSxmqPUmno+z8a9vY+F5TiKsP87jtgR6FxAAen8HWP+kAtHwIwRkEBAAzs5bNvDcL7fl/vpo+dz6cY8JEBgGAcC7gMCEAtnwcxtBIJpQ3iccqrtLlc38qP1EKZ/PY7YECNwuIADc7uERgTMJZKPPABDbPKYpnYl29eI7Gd7pubOP7AoElicgACyvplZUUaBs9rmfIaDitBY5tIa/yLJa1IwCAsCM2IbqQyAbU25z1euP87gtAQIEagj4f8mooW5MAgQIECBQWUAAqFwAwxMgQIAAgRoCAkANdWMSIECAAIHKAgJA5QIYngABAgQI1BAQAGqoG5MAAQIECFQWEAAqF8DwBAgQIECghoAAUEPdmAQIECBAoLKAAFC5AIYnQIAAAQI1BASAGurGJECAAAEClQUEgMoFMDwBAgQIEKghIADUUDcmAQIECBCoLCAAVC6A4QkQIECAQA0BAaCGujEJECBAgEBlAQGgcgEMT4AAAQIEaggIADXUjUmAAAECBCoLCACVC2B4AgQIECBQQ0AAqKFuTAIECBAgUFlAAKhcAMMTIECAAIEaAgJADXVjEiBAgACBygICQOUCGJ4AAQIECNQQEABqqBuTAAECBAhUFhAAKhfA8AQIECBAoIaAAFBDfaIxd3Z2JrqSyxAgQIBAbwICwJZXfHdHCbe8hKZPgACBKgK6RxX26Qa9cun+6S7mSmcS8I3Mmfi8mACBmQUEgJnBpxoumk3c33Dfg1Nd0nXOKPCGey+f8QpeToAAgfkEBID5rCcbKZt/bB+78ubJrutCZxN48+WHVqHsbFfxagIECMwjIADM4zz5KBkCPvCuZya/tgueTuCpt7xtFQCiNm4ECBBoXUAAaL1CI/PL5r+7uzt8xxPfNlw6f8/IWQ7NLfC93/5+3wDMjW48AgROLSAAnJqu7gsjBEQAONjbH37wPd9TdzJGH972xkeHdz/6dt8AeC8QILA1AgLA1pTq9olmADh37tzww898ePiW+67cfoJHswr8jT/7sVUgy6//czvrJAxGgACBEwgIACfAqnlqNpTcxqf/uEcAuHjhnuHHP/Ajg/8mQJ0Kff97/vTw7W99clWLrE+dmRiVAAECxxcQAI5v1cyZ2WRiGyFgb29veObxdw9/7f0/1Mwce5nIs2/9tuEnPvgXVnXIUBZrL2vUi4V1EiCwXQICwHbVazXbbC7x6T/uEQDi/qGnvnP42Ps+6puAmWr63seeGv7WR//KcP7g/G2f/rM+M03DMAQIEDiVwN6pXuVFswpEQ7l58+atT5UxeHzajFuGgP39/eHg4GD46NMfGB578M3Dz3zy48MLr7y0Osf/TCuwt3tu+LFnPzL80DN/Zrhw/sKtGmRNBIBpvV2NAIHNCOwcNpabm7m0q04lECW6cePG6n79+vXhtddeG65duza8+uqrw9WrV1f3V155Zch7HPvqS18bfvE3Pzn80hd/bbj62rWpptL1daKxP/ut7x5+9L0fHp44/Fv/58+fHy5cuHDrHiEsjsU2v5UZ+7VA14gWT4BAMwICQDOlOHoiEQAyBJQBoAwBGQZyGyEggsILf/Ti8Ctf+vXhN/7vF4bf+cpzw42bN44eyDOjAo9eftPwJw//Iz8ffNf7hkcefNOqwce3LdHs856Po/lnAIhvZwSAUVIHCRBoQEAAaKAId5vCegCIEBDNP+75DUBsMxDkNwRxLL45iPPjGi++8vLwu3/4e6tfDcSvB75+9dXDoX0BdLv/znBh/2C4/8Kl4YF77hu+9bDhxzZ/1RLbaPZxj0af+7kdCwD5K4Hc3j6eRwQIEKgj4O8A1HE/1ajRQPKenyxjm580YxsNKG55XoSBOB5B4MG9B4YHLt63CgM5gQgGbt8QKBt0+sW29M2v9nNb1iH387Wla3nt8rh9AgQI1BIQAGrJn3LcbC6xzYYT22hI0eSjWZVNPR5HCCi/Rcihy/PymO3t/4QvbMN6PQSUj3O/rE04xmM3AgQItCogALRambV5ZTPJJpPNP5pP/gXBCAHZ6PPl2cDyeG7zedtxgXTObemdDT+2Y/tpHlfOuo2P4igBAgTqCQgA9exPNXI0lGgw0chjWwaADALxXN7iWLwmG39u83nbcYFs/PFsNvT0DvMIWxkAMgTE83lu+frxERwlQIBAXQEBoK7/iUbPRp7NJRtOhoD15h7nxV8AjPMiCJTPx77buEC4xS2dY1taZwDIvweQYUDzH/d0lACBNgUEgDbrctusogFlw87mFM0mjkUzysae23xxNP84f/1bgHg+r5fn2n5TII1jm/cyAJSNP5t/+S1Avqa8zjevbo8AAQJtCAgAbdTh2LMom8p6CCgvEufF8xEC1r8FiPMEgFLr9v3SOB3DMpp83jME5OMMCLHN199+VY8IECDQloAA0FY9jpxNNJWyaWdjGntBPpfbaErlrwDKbwrKa45dq6dj4RW3cls29mz2sc1P/rmNY9n84/V5jZ78rJUAge0SEAC2q16r2ZbNJfaj8eQtm082rvVP/9n8c5uvs/2GQNqma27DswwA6/tHNf+8Hl8CBAi0JiAAtFaRO8wnmkl+Ys/Gks0/H8c27xkColnFNwDr3wLkUHnNfNzjNv1i7ekX2zTMbX7SzwCQx/Pc0q68ZnncPgECBFoQEABaqMIJ5hBNJRt2NphoQuWxbEbR8OO5bPy5jXPz/Bi63D/BVBZ3anrGtrxnky+3EQDSOY6Xr10cjAURILBIAQFgy8uajSeWkY0oG9N6AMjGn9t4jeYfCt+4pWW5TdNyW+7HueX569fKx7YECBBoTcD/GVBrFTnmfNYbdz7O5r7+aT+Ox7G45TnlUPn68lgv+9nAc73rTT0eZ9PP59a3+drYxnNuBAgQaF1AAGi9QneZ33rjLpt77pfbuFz5mnL/LkMt/umycef+WKPPYwGS5yXO+uM8bkuAAIHWBASA1ipyivmsN/Hycezn49zGEOX+KYZc9EvKJp77R20TIp/Px7YECBBoXUAAaL1CJ5jfWFMvj5X7edmxY/lcb9uxJl4eK/fTZuxYPmdLgACBlgUEgJarc8q53a2p3+35Uw67qJfdrbHf7flFYVgMAQKLFBAAFlnW4y1KEHi9k8b+ehNHCBBYpoB/BrjMuh5rVZrdsZicRIAAgUUKfPO/IbvI5VkUAQIECBAgMCYgAIypOEaAAAECBBYuIAAsvMCWR4AAAQIExgQEgDEVxwgQIECAwMIFBICFF9jyCBAgQIDAmIAAMKbiGAECBAgQWLiAALDwAlseAQIECBAYExAAxlQcI0CAAAECCxcQABZeYMsjQIAAAQJjAgLAmIpjBAgQIEBg4QICwMILbHkECBAgQGBMQAAYU3GMAAECBAgsXEAAWHiBLY8AAQIECIwJCABjKo4RIECAAIGFCwgACy+w5REgQIAAgTEBAWBMxTECBAgQILBwAQFg4QW2PAIECBAgMCYgAIypOEaAAAECBBYuIAAsvMCWR4AAAQIExgQEgDEVxwgQIECAwMIFBICFF9jyCBAgQIDAmIAAMKbiGAECBAgQWLiAALDwAlseAQIECBAYExAAxlQcI0CAAAECCxcQABZeYMsjQIAAAQJjAgLAmIpjBAgQIEBg4QICwMILbHkECBAgQGBMQAAYU3GMAAECBAgsXEAAWHiBLY8AAQIECIwJCABjKo4RIECAAIGFCwgACy+w5REgQIAAgTEBAWBMxTECBAgQILBwAQFg4QW2PAIECBAgMCYgAIypOEaAAAECBBYuIAAsvMCWR4AAAQIExgQEgDEVxwgQIECAwMIFBICFF9jyCBAgQIDAmIAAMKbiGAECBAgQWLiAALDwAlseAQIECBAYExAAxlQcI0CAAAECCxcQABZeYMsjQIAAAQJjAgLAmIpjBAgQIEBg4QICwMILbHkECBAgQGBMQAAYU3GMAAECBAgsXEAAWHiBLY8AAQIECIwJCABjKo4RIECAAIGFCwgACy+w5REgQIAAgTEBAWBMxTECBAgQILBwAQFg4QW2PAIECBAgMCYgAIypOEaAAAECBBYuIAAsvMCWR4AAAQIExgQEgDEVxwgQIECAwMIFBICFF9jyCBAgQIDAmIAAMKbiGAECBAgQWLiAALDwAlseAQIECBAYExAAxlQcI0CAAAECCxcQABZeYMsjQIAAAQJjAgLAmIpjBAgQIEBg4QICwMILbHkECBAgQGBMQAAYU3GMAAECBAgsXEAAWHiBLY8AAQIECIwJCABjKo4RIECAAIGFCwgACy+w5REgQIAAgTEBAWBMxTECBAgQILBwAQFg4QW2PAIECBAgMCYgAIypOEaAAAECBBYuIAAsvMCWR4AAAQIExgQEgDEVxwgQIECAwMIFBICFF9jyCBAgQIDAmIAAMKbiGAECBAgQWLiAALDwAlseAQIECBAYExAAxlQcI0CAAAECCxcQABZeYMsjQIAAAQJjAgLAmIpjBAgQIEBg4QICwMILbHkECBAgQGBM4P8DA1hDDUJF2NcAAAAASUVORK5CYII=;" vertex="1" parent="1">
          <mxGeometry x="697" y="603" width="34" height="34" as="geometry" />
        </mxCell>
        <mxCell id="fUqpHQP2NRJlJACCKLOP-53" value="" style="shape=image;verticalLabelPosition=bottom;labelBackgroundColor=default;verticalAlign=top;aspect=fixed;imageAspect=0;image=data:image/jpeg,/9j/4AAQSkZJRgABAQAAAQABAAD/2wCEAAkGBw8PDxUPDw8VDxUVFRUVFQ8VFRUVFRUVFRUXFhUVFRUYHSggGBolHRUVITEhJSkrLi4uFx8zODMtNygtLisBCgoKDg0OGhAQGy0mICUtLjIuLjAwLTAvLS0tNy0tLS4tLS8tLS0tLS0tLS0tLSstKy0tLS0tLS0tLS0tLS0tLf/AABEIANwA3AMBEQACEQEDEQH/xAAcAAEBAAMBAQEBAAAAAAAAAAAAAQQFBwYDCAL/xABDEAACAgEBBQMHCgMHBAMAAAAAAQIDBBEFBhIhMQdBYRMiUXGhsbIyMzQ1UnJzgYKRI1NiFEJDwdHh8JKiwtIVJET/xAAaAQEAAwEBAQAAAAAAAAAAAAAAAwQFBgIB/8QAMhEBAAIBAwIDBgUEAwEAAAAAAAECAwQFESExEjNxEzJBQlGhIjRhgZEjscHRFUNSFP/aAAwDAQACEQMRAD8A7gAAAAAAAAAAAAAAAAAAAAAAAAAAAAAAAAKBAKBAAAABQAAAAAAAIAAAAAAAAAAAAAAAAAUABAKAAAAIBQIAAw79q0V3xx52KFk1xQi+XEtdNE+mvgSRivNZvEdIRzlpFopM9ZZhGkAAAAAAAAAAAAAAAAFAAAIAAAAAAAAAAcu7W3pk0Ncv4baff8rqbu0e5aGFu08XrMG6e/8AKrSnNbnDor+soffX95ePX1n3V7ZE/ixfwaTc+Pw5f5dNx74WRU65KcXzUk9U16zCtWazxLci0WjmH0Pj6AAAAAAAAAAAAAAAAAAAAAAAAAA2Botr73YOLqp3Kcv5dfny9nJfmy1h0ebL7sfyq5tZhxd5ct3w3i/+QujYqnVGEXGKb1bTeur05I39FpZ09ZiZ5mWBrdVGe0TEccNAXVJu9295sjAn/DfHW351Mvkv1fZfiVNVo8eeOvSfquaXW3wT9Y+jr2wN4MfOhx0y5r5VT5Ti/FejxOcz6bJgtxaHR4NTTNXmstqV04AAAAAAAAAAAAACgAIAAoEAAY2dtCmiPFdbGtemTSPdMdrzxWOXi+StI5tPDxu2O0qiGscWp3v7cnwQ92svZ6zTw7Vkt1vPDNzbrjr0pHLw+19683K1VlzjF/4cPMj7Ob/Nmrh0OHH2jmfrLKza7Nk7zw0hbU56gAAB98PLspmrKpuua6ST0f8Aujxkx1yV8No6PePJbHbxVl1HdLfyvI0pytKrein0hZ/6y8Dn9Xt1sf4qdY/s6DSbhXJ+G/Sf7vbGY0wAB/M5qK1k0l6XyR9iJns+TMR3YF+3sOElGWRXxNqKipJttvRLREsafLMcxWUU58cTxNobEhTAAAAAAAAFAgAABpd4t58bA0VzcpyWsa4rWTXp8F6yzp9Jkzz+H+VbUarHgj8Tn+2O0bLt1jRGONH7XyrP3fJfkvzNjDtWOvW88/2Y+bdclulI4eRysqy2TnbOVkn/AHpNt+006Y60jiscM2+S155tPL4np4AAAAA1A+2Pi2Wcq65T+7Fv3Hi2SlfenhJXFe3uw3OHudtG3pjSivTNqPvK19wwV+blZpoM9u0PcYFu0dlYkrMtwyK4JcMFJ+Ui20kuNrRx9pkZIwanLEYuYmf4a+Oc2mxTOTiYj+Wiy+03Kl81j1V+MnKb9nCi5TaKR71plTvu9592sNJl757Rt65Lh4QUYe5alqm36evy/wAql9wz2+ZqMjOus52Wzn96TZaripX3YhWtmyW7zL+9kfSafxavjR5zeXb0l6wT/Vr6w/QZxzsAAAAAAKAAgACga7b+168KiV9ndyjHvlJ9IomwYbZrxSqHPmripNrOGbU2hZlXTvtespvXwS7orwR1eHFXFSKVcpmzWy3m1mISogBqBlY2zci35uiyeveoPT9yK2fHX3rQlrgyW7Vlu8PcXaNn+Cq/vyS9hVvuWCvx5Wqbbnt8OG6xOzC5/PZMIeEIuT9uhVvvFflqtU2ifms3mH2bYMNHZK2596clFP8AKKT9pVvuue3biFum14Y78y3eHutgU/Ixa9fS1xP95asqX1ea/e0rVNJhp2rDbV1Rj8mKj6kkQTMz3TxER2f0fH15vtE+rbf0/Ei7t35iqluHkWcVOpcsoADK2R9Jp/Fq+OJFm8u3pKXT+bX1h+gzjnYgAAAAAUCAAAH8X3Rrg5zajGKbcn0SXVn2tZtPEPlpiscy4nvhvDLPyOJNqqGqqh4d82vSzqNFpYwU6957uX1uqnPfp2hj7u7vXZ85QpcVwJOTk9OTei9zJNTqqYIibfF402ltnmfD8HsMTsv/AJ2V+UI/5y/0M2+8f+K/y0qbRHzWbrE7O9nQ5zjO7782l+0dCpfc9RbtPHotU2zBXvHLeYewMOnTyWNXDTv4Fr+75lW+oy3960rVNPip7tYbCMUui09RCm4UABQIBQAHmu0X6tt/T8SLu3fmKqW4eRZxU6pywfAAy9kfSafxavjRFn8u3pKXB5tfWH6EOOdiAAAAAAAAAAGj32+rsj8NlrRefT1VtZ5FvRww6xyToPZB87kfdr98zF3jtT923s/zOmmG2wAAAAAAAAAA832ifVtv6fiRd278xVS3DyLOKnVOWD4AGXsj6TT+LV8aIs3l29JS6fza+sP0Gcc7EAAAAAABQAEA0m+v1dkfhyLWj8+nqrazyLejhh1jknQeyD53I+7X75mLvHan7tvZ/mdNMNtgACgQABQIAAAeb7RPq239PxIu7d+Yqpbh5FnFTqnLKfAAytkfSafxavjiRZvLt6Sl0/m19YfoM452IAAAAAFAgAABpN9fq7I/DkWtH59PVW1nkW9HDDrHJOg9kHzuR92v3zMXeO1P3bez/M6aYbbAAFAgAAAAAUDzXaJ9W2/p+JF3bvzFVLcPIs4qdU5YPgAZeyPpNP4tXxxIs/l29JS4PNr6w/QZxzsQAAAAAKAAgFA0e+v1dkfhyLWj8+nqrazyLejhh1jknQeyD53I+7X75mLvHan7tvZ/mdNMNtgAAAAAAAAAB5vtE+rbf0/Ei7t35iqluHkWcVOqcsHwAMvZH0mn8Wr40RZvLt6Sl0/m19YfoM452IAAAAAAABQAGm3wrlPAvjCLk3W0oxTbfqSLGktFc1Zn6q+riZw2iPo4ZZVKPKUXHwaa951kXrPaXJ2paO8PfdkHzuR92v3yMjeO1P3bGz97OmmE3FAgFAgACgQCgQDzfaJ9W2/p+JF3bvzFVLcPIs4qdU5YPgAZeyPpNP4tXxxIs3l29JS6fza+sP0Gcc7EAAAKBAAAAAAAfK/HrsWk4RmvRJJ+89Raa9peZrFu8NPtLYXBCc9n8OLc11ikoz05qMl00J8efm0Rl6wgyYOImcXSXgo9oG0aZOu6MJSi9JRlDhaa6p6M2P8AjMF6xakz1ZH/ACWek+G0NhjdqMv8XET8Yz09jRDbZ/8AzZLXd/rVtMbtMw5fLqur8dIyXslr7CC205o7TEp67rhnvEtpj78bNn/+lR8JRlH3or20Gor8qxXX4LfM2mPtnFs+byK5+qcSC2HJXvWU9c2O3a0M2M0+jT9T1I+JScw/o+PqAAKB5rtE+rbf0/Ei7t35iqluHkWcVOpcsAAMvZH0mn8Wr44kWby7ekpcHm19YfoQ452KAAAACgQAAAAAAADxXaBun/aYvKoj/FivOiv8SK/8l/sae3632U+C/uz9mZr9H7WPHXvH3cn/AOaHRxPLnZjjogfABoDl96cy2HyLZx9UpL/M8TipbvEJK5bx2mWzxt69oV/JypvwbUl7SvbQ4Ld6p667PXtZtMbtE2hD5TrsX9UNPbHQgtteCe3MJ67pmjvxLZ43ahavnMWMvGM3H2NMgts8fLb7LFd3n41bTG7TcR/OU21+rhkvY0/YV7bTlj3ZiViu7Yp7xMMbe/e7CysGyqmxucuHSDhKL5ST71oe9Jos2LNFrR0eNVrcOXDNaz1czN5gAADL2R9Jp/Fq+OJFn8u3pKXB5tfWH6DOOdiAAAFAAQAAAAAAAABzTtG3T4W83HjyfO6tdz/mJe/9zb27W/8AVf8Ab/TE3HRf9tP3c8NtiAAAAAAAAAAAAAes3J3Uuy7IXy1rphJS49Oc3FppR8OXUzddraY6zSOsy09DorZLReekQ7Gc26MAgFAAAIAAAAAAAAAkoppprVPk0+/wB3cf393WeHZ5alfwJvp/Lk/7v3fR+x0e36z2tfBb3o+7nNw0fs7eOvafs8kabMbbG3cy7aFkVUuyDbWsWm1p11j1K1tXipfwWniVqujy2p46xzDV21yi+GUXF+hpp/syxW0WjmJV7Vms8TD+T68gAAAAAARD325u4bt4cjNi4w5ONHfL0OfoXh3mNrdyiOaYu/1/02tHt3P48v8ADp9cFFKMUopcklySXgjDmeestuIiOkP6Pj6gFAgACgQAAAAAAAAAA+OZi13VyqtipwktHF96PVLzSYtXu82rFo8Nuzie9u7s8C9w5yrlzrsfevsv+pHUaTVxnpz8Y7uX1mknBf8AT4Okdmf1dD78/iMTc/zEtzbvIhvs/ZWPkLhuphYv6opv8mVMeW+OeazwtXxUvHFo5eS2p2aY09Xj2zof2X58Pb5y/dmji3XJXpeOfsz8u1Y7daTw8ftTcbPx9X5Py0ftVvX/ALeppYtxw37zxP6s3LtuanaOXnLIOL4ZJxa/utNP9mXotExzEqNqzWeJh/J9eQD6UUyskoQi5Sk9FFLVtnm1orHNp6PVKTaeK93U9zNx44+mRlJTt6xr6xr/ANZe45/WbjbLzSnSv93Q6Pb4xfiv1l7cy2mAAAAABQAEAAAAAAAAoACAYO29k1ZlMqLlyfSS6xl3Sj4kuHNbFeL1RZsNctJrZgbmbMsxMXyFq5xsnzXSSb5SXrRLrM0Zcnjj4o9JinFj8Et8VVkAAYO0dkY2SuG+mFq8UtV6n1RJjzXxzzSeEeTDTJHFo5eS2p2aY09XjWypf2ZefD2+cv3Zo4t2yV9+Ofsz8u1Y7e5PDymXuDtCE1CMI2JvTykZcl4y15pGjXc8E15nozrbZmi3EdXQ90906cCPF85c151r7v6YLuXtZi6rWXzz+n0bOl0dMEfr9XoimuAACgAIBQAACAAAAAAAAAAAAAAAAAFAAQABQIBQIAAAAKAAgAAAAAAAAAAAoEAAAAFAgACgQAAAAUCAAKAAgAAAAAAMerOrnbOmMtZwScl6/H/nUDIAoEAoACAedzd9cGmyVU5yUoPSS4G9GXabfmvWLRHSVO+vw0tNZnq2myts42XFyx7Y2adUuTXri+aIMuDJini8cJ8WfHljmk8s8hSoAA0e1N7cHGn5Ky5cS6xinLh9enT1FvFos2SvirHRVy63Djnw2nq2WzNpU5NflaLFZHpqu5+hrqn4Mgy4r47eG8cSmx5aZK+Kk8wyiNIoACAAKAAAQAAAAAPllXquErJdIpt/kB5unKqrVF3loSnxy8pFTi21c/OWifc+H9gNvthcMfKu+daSS4IcPnPXklqur10Axq3fVHHVljlKdvn66dGm+Dp3cgM3IuksmqCekZRsbXp000AxNmSuslOc7WoV3WxUEl50U2lq/Qv8gMFbXc63cr5xno5RpVc3D+mLfDz19OveB6PHs44Rlpw8UU9PRqtdAPGbpVRltPP4oqWk46apPTqaurmY0+LhmaWInUZef0YqohjbwRjjpRjOuTsrjyS8xyfLu+SmSeKcuhmb/CeiPwxj1sRT4x1YV29tt0rbP7csXgk1VjqtzU1H7ckn19ZLXRVpFa+Dxc9557I7a21ptbx+HjtHHdn5G8mT/wDRzONxqtfk7qklw8afX08/O/6SGulx/wBXFx1jrE/oltqsn9PJz0npMMi3a2Tbm5nk7GqcalrgSWjs4X36ddeJ/pPEYMdcOPxR+K0/Z7nNktmyeGelY+7+ezfZONZh+XsrhdZZOfG5pS00eiXPp6fzPu5Zslc3grMxERD5t+HHbF47RzMsHZkf7JtPOpxnw1qmU0l0hJVqS09Tk0S5Z9rp8Vr9+f8AKLF/S1GWtO3H+E2dlbWyNnvLjlqCr8pLRxTlYoc3q+iXJpLTuGSmlx5/ZzXvx+3Jjvqb4PaRbtz+767S3ry5YGNfD+ErJON18Y8XDwvh1S7tdGzzj0WKM96T147Q9ZNZlnDS0dOe8vUbp5HlKXJZizVxcrNFGUeXyZLuf5FDV18N+PB4V7S28VefF4m7KqyAAAFAgAAAAAYe1cSV0FWmlFyjx698E9Wl6+QEydlUThKCqhHVNKShFNehpgYV+BkylU+KuXk4rlLi0dnTj5eHT1gZF+JdbBccoQshNTg4puPLuafPnzAVYVzvhdbOPmxnHginp52nNa9XyA++zcR1KabT4rbJrT0TeqQGLjYORTHyVVkPJrXhck3KCfSPXR6AbVAeKluxtCvKvyMbKrqV0tWnFt6LomakavBbHWmSszwzJ0ueuS18dojls93d11jWTyLrXkXzWkrXyST6qK/JEGp1k5axSscVj4J9PpPZ2m9p5tPxYEN1MnHsm8PIrjXZLicLa1Nxb68LJp1uPJWPa1nmPpPCL/48lLT7O0cT9Y5bPbewZZOCsZzj5RcMlbw8K44vXi0XTv8A3K+DUxizePjp9P0T5tPOTF4Oev1/Vd1NgPDonXbJWzsnKdk+6Wq0S59eXvY1ep9teJrHERHQ0un9lSYt1me7Sy3Mysecns/NdEJvV1tapeotRr8eSI9tTmY+KtOhyUmfY34ifgztnbtRwsbInKx3W2V2Odr7/Nb0X58yLJq5z5KREcRExxCTHpYw47zM8zMTzLzO62w8vK2eo05nka5ynGytx179Hwvu1XVF7VajFiz82pzMccSpaXT5MmDit+Inu9bPYWRRj1UYN8IRhFxlG2HGp6vVyfjrr+5nRqMd72vljnn6T2aE6e9KRTFPb6/F9N1N3f7DGxysVk7ZcUuFcMF4Rj3LmedXqvbzHEcRD7pdN7GJ5nrLfFRbAAFAgAAAAAAAAABQIAAAAAAABQIBQP4srUouMlqmmmvSnyaPsTMTzD5MRMcS+OBg1Y8PJ0wVcU2+FdNX1PWTJbJPitPMvNMdaRxWOIZJ4ewABAAACgQAAAAAAAAAAAAAAAAAoEAAUCAAAAAAAAUABAAAAAAAAKAAgFAgFAAAAAAAAAAAAAAAAAAH/9k=;" vertex="1" parent="1">
          <mxGeometry x="650" y="599" width="41" height="41" as="geometry" />
        </mxCell>
        <mxCell id="fUqpHQP2NRJlJACCKLOP-54" value="MyTime" style="text;html=1;align=center;verticalAlign=middle;whiteSpace=wrap;rounded=0;fontStyle=1" vertex="1" parent="1">
          <mxGeometry x="656" y="540" width="60" height="30" as="geometry" />
        </mxCell>
        <mxCell id="fUqpHQP2NRJlJACCKLOP-56" value="&lt;font style=&quot;font-size: 9px;&quot;&gt;Excel, reuniones de seguimiento..&lt;/font&gt;" style="text;html=1;align=center;verticalAlign=middle;whiteSpace=wrap;rounded=0;fontStyle=1" vertex="1" parent="1">
          <mxGeometry x="648" y="667" width="118" height="30" as="geometry" />
        </mxCell>
      </root>
    </mxGraphModel>
  </diagram>
</mxfile>
